M48
; DRILL file {KiCad (6.0.0-0)} date Friday, January 06, 2023 at 10:19:40 PM
; FORMAT={-:-/ absolute / inch / decimal}
; #@! TF.CreationDate,2023-01-06T22:19:40-08:00
; #@! TF.GenerationSoftware,Kicad,Pcbnew,(6.0.0-0)
; #@! TF.FileFunction,Plated,1,2,PTH
FMAT,2
INCH
; #@! TA.AperFunction,Plated,PTH,ComponentDrill
T1C0.0315
; #@! TA.AperFunction,Plated,PTH,ComponentDrill
T2C0.0433
%
G90
G05
T1
X7.3031Y-2.6811
X7.3031Y-2.6811
X7.3031Y-2.8346
X7.3031Y-2.8346
X7.3071Y-3.126
X7.3071Y-3.126
X7.3071Y-3.2795
X7.3071Y-3.2795
X7.315Y-2.1732
X7.315Y-2.1732
X7.3228Y-1.9606
X7.3228Y-1.9606
X7.3307Y-1.7992
X7.3307Y-1.7992
X7.3425Y-1.6693
X7.3425Y-1.6693
X7.3425Y-2.3307
X7.3425Y-2.3307
X7.3425Y-2.437
X7.3425Y-2.437
X7.3701Y-2.7638
X7.3701Y-2.7638
X7.3701Y-2.9016
X7.3701Y-2.9016
X7.3701Y-3.4803
X7.3701Y-3.4803
X7.378Y-3.3661
X7.378Y-3.3661
X7.4094Y-2.063
X7.4094Y-2.063
X7.4094Y-2.1535
X7.4094Y-2.1535
X7.4331Y-2.5866
X7.4331Y-2.5866
X7.4409Y-3.2835
X7.4409Y-3.2835
X7.4449Y-2.7362
X7.4449Y-2.8362
X7.4449Y-2.9362
X7.4449Y-3.0362
X7.4449Y-3.6732
X7.4449Y-3.6732
X7.4449Y-3.8307
X7.4449Y-3.8307
X7.4488Y-3.1378
X7.4488Y-3.1378
X7.4488Y-3.6142
X7.4488Y-3.6142
X7.4488Y-3.9409
X7.4488Y-3.9409
X7.4528Y-1.7795
X7.4528Y-1.7795
X7.4528Y-3.3937
X7.4528Y-3.3937
X7.4528Y-3.4685
X7.4528Y-3.4685
X7.4528Y-3.5354
X7.4528Y-3.5354
X7.4528Y-3.7559
X7.4528Y-3.7559
X7.4528Y-4.0079
X7.4528Y-4.0079
X7.4567Y-4.1772
X7.4567Y-4.1772
X7.4606Y-4.2795
X7.4606Y-4.2795
X7.4803Y-2.1732
X7.4803Y-2.1732
X7.4921Y-2.063
X7.4921Y-2.063
X7.5197Y-3.1378
X7.5197Y-3.1378
X7.5197Y-3.2441
X7.5197Y-3.2441
X7.5236Y-1.8858
X7.5236Y-1.8858
X7.5394Y-1.7992
X7.5394Y-1.7992
X7.5433Y-1.6693
X7.5433Y-1.6693
X7.5709Y-2.063
X7.5709Y-2.063
X7.5748Y-2.1772
X7.5748Y-2.1772
X7.5748Y-2.5787
X7.5748Y-2.5787
X7.5945Y-3.9016
X7.5945Y-3.9016
X7.5984Y-3.3976
X7.5984Y-3.3976
X7.5984Y-3.4606
X7.5984Y-3.4606
X7.5984Y-3.5354
X7.5984Y-3.5354
X7.5984Y-3.6102
X7.5984Y-3.6102
X7.5984Y-3.6811
X7.5984Y-3.6811
X7.5984Y-3.748
X7.5984Y-3.748
X7.5984Y-3.8268
X7.5984Y-3.8268
X7.5984Y-3.9882
X7.5984Y-3.9882
X7.5984Y-4.2047
X7.5984Y-4.2047
X7.6142Y-2.315
X7.6142Y-2.315
X7.6181Y-2.4173
X7.6181Y-2.4173
X7.622Y-1.9646
X7.622Y-1.9646
X7.626Y-2.6575
X7.626Y-2.6575
X7.6496Y-3.1181
X7.6496Y-3.1181
X7.6496Y-3.2362
X7.6496Y-3.2362
X7.6575Y-1.8898
X7.6575Y-1.8898
X7.6575Y-2.0591
X7.6575Y-2.0591
X7.6693Y-4.0748
X7.6693Y-4.0748
X7.6732Y-3.9803
X7.6732Y-3.9803
X7.6772Y-3.3819
X7.6772Y-3.3819
X7.689Y-1.8031
X7.689Y-1.8031
X7.6929Y-4.2126
X7.6929Y-4.2126
X7.7008Y-2.3425
X7.7008Y-2.3425
X7.7126Y-2.4291
X7.7126Y-2.4291
X7.7165Y-2.1417
X7.7165Y-2.1417
X7.7165Y-2.5394
X7.7165Y-2.5394
X7.7165Y-3.7047
X7.7165Y-3.7047
X7.7165Y-3.7047
X7.7165Y-3.7913
X7.7165Y-3.7913
X7.7165Y-3.7913
X7.7165Y-3.874
X7.7165Y-3.874
X7.7165Y-3.874
X7.7205Y-2.2402
X7.7205Y-2.2402
X7.7205Y-3.4646
X7.7205Y-3.4646
X7.7205Y-3.4646
X7.7205Y-3.5433
X7.7205Y-3.5433
X7.7205Y-3.5433
X7.7205Y-3.6299
X7.7205Y-3.6299
X7.7205Y-3.6299
X7.7449Y-2.7362
X7.7449Y-2.8362
X7.7449Y-2.9362
X7.7449Y-3.0362
X7.7559Y-1.9764
X7.7559Y-1.9764
X7.7559Y-3.3819
X7.7559Y-3.3819
X7.7559Y-4.0039
X7.7559Y-4.0039
X7.7598Y-3.2874
X7.7598Y-3.2874
X7.7638Y-4.0945
X7.7638Y-4.0945
X7.7638Y-4.0945
X7.7717Y-2.6693
X7.7717Y-2.6693
X7.7717Y-3.2008
X7.7717Y-3.2008
X7.7795Y-2.3465
X7.7795Y-2.3465
X7.7795Y-2.437
X7.7795Y-2.437
X7.7953Y-2.0787
X7.7953Y-2.0787
X7.7992Y-2.5394
X7.7992Y-2.5394
X7.8228Y-1.7441
X7.8228Y-1.7441
X7.8228Y-1.8465
X7.8228Y-1.8465
X7.8228Y-3.9213
X7.8228Y-3.9213
X7.8228Y-3.9213
X7.8268Y-3.3819
X7.8268Y-3.3819
X7.8268Y-3.7441
X7.8268Y-3.7441
X7.8268Y-3.7441
X7.8346Y-2.1575
X7.8346Y-2.1575
X7.8504Y-2.0
X7.8504Y-2.0
X7.8622Y-2.3504
X7.8622Y-2.3504
X7.8622Y-3.2205
X7.8622Y-3.2205
X7.878Y-2.4409
X7.878Y-2.4409
X7.878Y-3.4803
X7.878Y-3.4803
X7.878Y-3.4803
X7.878Y-3.6732
X7.878Y-3.6732
X7.878Y-3.6732
X7.8819Y-3.3268
X7.8819Y-3.3268
X7.8898Y-2.5354
X7.8898Y-2.5354
X7.9055Y-2.9488
X7.9055Y-2.9488
X7.9094Y-2.6969
X7.9094Y-2.6969
X7.9094Y-2.7913
X7.9094Y-2.7913
X7.9134Y-3.063
X7.9134Y-3.063
X7.9331Y-2.1535
X7.9331Y-2.1535
X7.937Y-2.0
X7.937Y-2.0
X7.9764Y-2.4724
X7.9764Y-2.4724
X7.9843Y-2.0866
X7.9843Y-2.0866
X7.9961Y-1.9173
X7.9961Y-1.9173
X7.9961Y-1.9921
X7.9961Y-1.9921
X8.0354Y-3.2126
X8.0354Y-3.2126
X8.0433Y-3.6024
X8.0433Y-3.6024
X8.0472Y-3.6929
X8.0472Y-3.6929
X8.0669Y-3.311
X8.0669Y-3.311
X8.0787Y-2.6693
X8.0787Y-2.6693
X8.0787Y-2.9094
X8.0787Y-2.9094
X8.0787Y-2.9094
X8.0787Y-2.9094
X8.0827Y-2.3898
X8.0827Y-2.3898
X8.0827Y-2.8346
X8.0827Y-2.8346
X8.0827Y-2.8346
X8.0827Y-2.8346
X8.0866Y-2.5551
X8.0866Y-2.5551
X8.0866Y-2.752
X8.0866Y-2.752
X8.0866Y-2.9843
X8.0866Y-2.9843
X8.0866Y-2.9843
X8.0866Y-2.9843
X8.0866Y-3.1575
X8.0866Y-3.1575
X8.0866Y-3.1575
X8.0866Y-3.1575
X8.1181Y-2.0866
X8.1181Y-2.0866
X8.126Y-1.9134
X8.126Y-1.9134
X8.1496Y-1.9843
X8.1496Y-1.9843
X8.1732Y-2.6732
X8.1732Y-2.6732
X8.1772Y-2.8465
X8.1772Y-2.8465
X8.1772Y-2.8465
X8.1772Y-2.8465
X8.1811Y-2.9764
X8.1811Y-2.9764
X8.1811Y-2.9764
X8.1811Y-2.9764
X8.1969Y-2.137
X8.1969Y-2.437
X8.2283Y-2.7638
X8.2283Y-2.7638
X8.2323Y-3.1575
X8.2323Y-3.1575
X8.2323Y-3.1575
X8.2323Y-3.1575
X8.2362Y-1.8858
X8.2362Y-1.8858
X8.252Y-2.9843
X8.252Y-2.9843
X8.252Y-2.9843
X8.252Y-2.9843
X8.2559Y-2.8976
X8.2559Y-2.8976
X8.2559Y-2.8976
X8.2559Y-2.8976
X8.2598Y-2.5669
X8.2598Y-2.5669
X8.2638Y-2.6732
X8.2638Y-2.6732
X8.2677Y-2.0354
X8.2677Y-2.0354
X8.2953Y-3.0787
X8.2953Y-3.0787
X8.2953Y-3.0787
X8.2953Y-3.0787
X8.2953Y-3.1496
X8.2953Y-3.1496
X8.2953Y-3.1496
X8.2953Y-3.2362
X8.2953Y-3.2362
X8.2953Y-3.2362
X8.2969Y-2.137
X8.2969Y-2.437
X8.2992Y-3.3543
X8.2992Y-3.3543
X8.2992Y-3.3543
X8.315Y-3.8701
X8.315Y-3.8701
X8.315Y-3.8701
X8.3189Y-3.7795
X8.3189Y-3.7795
X8.3189Y-3.7795
X8.3346Y-1.8898
X8.3346Y-1.8898
X8.3386Y-2.7205
X8.3386Y-2.7205
X8.3386Y-2.9843
X8.3386Y-2.9843
X8.3386Y-2.9843
X8.3386Y-2.9843
X8.3465Y-2.5866
X8.3465Y-2.5866
X8.3465Y-2.8031
X8.3465Y-2.8031
X8.3583Y-3.4961
X8.3583Y-3.4961
X8.3583Y-3.4961
X8.3583Y-3.5906
X8.3583Y-3.5906
X8.3583Y-3.5906
X8.3661Y-3.2008
X8.3661Y-3.2008
X8.3661Y-3.2008
X8.3661Y-3.2008
X8.3701Y-3.1063
X8.3701Y-3.1063
X8.3701Y-3.1063
X8.3701Y-3.1063
X8.3969Y-2.137
X8.3969Y-2.437
X8.3976Y-3.3543
X8.3976Y-3.3543
X8.3976Y-3.3543
X8.4094Y-2.0354
X8.4094Y-2.0354
X8.4173Y-2.5866
X8.4173Y-2.5866
X8.4291Y-3.2835
X8.4291Y-3.2835
X8.4291Y-3.2835
X8.437Y-2.7362
X8.437Y-2.7362
X8.4409Y-2.9843
X8.4409Y-2.9843
X8.4409Y-2.9843
X8.4409Y-2.9843
X8.4488Y-3.4567
X8.4488Y-3.4567
X8.4488Y-3.4567
X8.4488Y-3.5591
X8.4488Y-3.5591
X8.4488Y-3.5591
X8.4528Y-1.9252
X8.4528Y-1.9252
X8.4528Y-2.8031
X8.4528Y-2.8031
X8.4685Y-3.1929
X8.4685Y-3.1929
X8.4685Y-3.1929
X8.4685Y-3.1929
X8.4685Y-3.7323
X8.4685Y-3.7323
X8.4685Y-3.7323
X8.4764Y-3.1102
X8.4764Y-3.1102
X8.4764Y-3.1102
X8.4764Y-3.1102
X8.4921Y-2.8622
X8.4921Y-2.8622
X8.4969Y-2.137
X8.4969Y-2.437
X8.5118Y-2.5866
X8.5118Y-2.5866
X8.5394Y-1.9252
X8.5394Y-1.9252
X8.5433Y-3.0472
X8.5433Y-3.0472
X8.5472Y-2.3661
X8.5472Y-2.3661
X8.5472Y-2.7362
X8.5472Y-2.7362
X8.5591Y-3.3504
X8.5591Y-3.3504
X8.5591Y-3.3504
X8.563Y-3.185
X8.563Y-3.185
X8.563Y-3.185
X8.563Y-3.2717
X8.563Y-3.2717
X8.563Y-3.2717
X8.563Y-3.7244
X8.563Y-3.7244
X8.563Y-3.7244
X8.5669Y-3.563
X8.5669Y-3.563
X8.5669Y-3.563
X8.5709Y-3.4567
X8.5709Y-3.4567
X8.5709Y-3.4567
X8.6181Y-2.3661
X8.6181Y-2.3661
X8.622Y-2.8622
X8.622Y-2.8622
X8.6299Y-3.126
X8.6299Y-3.126
X8.6299Y-3.126
X8.6417Y-3.2874
X8.6417Y-3.2874
X8.6417Y-3.2874
X8.6449Y-2.1378
X8.6449Y-2.4378
X8.6654Y-2.0591
X8.6654Y-2.0591
X8.6693Y-3.7087
X8.6693Y-3.7087
X8.6693Y-3.7087
X8.6693Y-3.811
X8.6693Y-3.811
X8.6693Y-3.811
X8.6772Y-1.9606
X8.6772Y-1.9606
X8.689Y-2.5866
X8.689Y-2.6866
X8.689Y-2.7866
X8.689Y-2.8866
X8.689Y-2.9764
X8.689Y-2.9764
X8.6929Y-3.6024
X8.6929Y-3.6024
X8.6929Y-3.6024
X8.7047Y-3.2087
X8.7047Y-3.3087
X8.7047Y-3.4087
X8.7047Y-3.5087
X8.7087Y-1.6693
X8.7087Y-1.6693
X8.7165Y-3.1181
X8.7165Y-3.1181
X8.7449Y-2.1378
X8.7449Y-2.4378
X8.7677Y-3.815
X8.7677Y-3.815
X8.7677Y-3.815
X8.7717Y-3.7087
X8.7717Y-3.7087
X8.7717Y-3.7087
X8.7795Y-4.3661
X8.7795Y-4.3661
X8.7795Y-4.3661
X8.7835Y-1.8976
X8.7835Y-1.8976
X8.8071Y-1.7677
X8.8071Y-1.7677
X8.8071Y-2.5236
X8.8071Y-2.5236
X8.811Y-2.0394
X8.811Y-2.0394
X8.8228Y-2.9764
X8.8228Y-2.9764
X8.8307Y-3.6063
X8.8307Y-3.6063
X8.8307Y-3.6063
X8.8346Y-4.2087
X8.8346Y-4.2087
X8.8346Y-4.2087
X8.8386Y-4.0984
X8.8386Y-4.0984
X8.8386Y-4.0984
X8.8449Y-2.1378
X8.8449Y-2.4378
X8.8543Y-3.0472
X8.8543Y-3.0472
X8.8701Y-2.9764
X8.8701Y-2.9764
X8.874Y-3.8031
X8.874Y-3.8031
X8.874Y-3.8031
X8.8858Y-1.6693
X8.8858Y-1.6693
X8.8858Y-2.0315
X8.8858Y-2.0315
X8.8937Y-3.6063
X8.8937Y-3.6063
X8.8937Y-3.6063
X8.9016Y-2.5197
X8.9016Y-2.5197
X8.9016Y-3.7047
X8.9016Y-3.7047
X8.9016Y-3.7047
X8.9252Y-1.7913
X8.9252Y-1.7913
X8.9449Y-2.1378
X8.9449Y-2.4378
X8.9528Y-3.937
X8.9528Y-3.937
X8.9528Y-3.937
X8.9764Y-3.8031
X8.9764Y-3.8031
X8.9764Y-3.8031
X8.989Y-2.5866
X8.989Y-2.6866
X8.989Y-2.7866
X8.989Y-2.8866
X8.9961Y-3.1142
X8.9961Y-3.1142
X9.0Y-2.9764
X9.0Y-2.9764
X9.0047Y-3.2087
X9.0047Y-3.3087
X9.0047Y-3.4087
X9.0047Y-3.5087
X9.0079Y-1.7953
X9.0079Y-1.7953
X9.0079Y-3.6102
X9.0079Y-3.6102
X9.0079Y-3.6102
X9.0551Y-3.9331
X9.0551Y-3.9331
X9.0551Y-3.9331
X9.0669Y-1.6654
X9.0669Y-1.6654
X9.0787Y-2.6732
X9.0787Y-2.6732
X9.0787Y-2.7795
X9.0787Y-2.7795
X9.0827Y-2.1575
X9.0827Y-2.1575
X9.0827Y-2.2283
X9.0827Y-2.2283
X9.0866Y-2.0315
X9.0866Y-2.0315
X9.0866Y-2.2992
X9.0866Y-2.2992
X9.0866Y-3.2953
X9.0866Y-3.2953
X9.0906Y-1.8819
X9.0906Y-1.8819
X9.0906Y-2.8976
X9.0906Y-2.8976
X9.0906Y-3.4055
X9.0906Y-3.4055
X9.0945Y-1.9685
X9.0945Y-1.9685
X9.0945Y-3.1102
X9.0945Y-3.1102
X9.1102Y-3.4803
X9.1102Y-3.4803
X9.1102Y-3.4803
X9.1102Y-3.622
X9.1102Y-3.622
X9.1102Y-3.622
X9.1102Y-3.7047
X9.1102Y-3.7047
X9.1102Y-3.7047
X9.1102Y-4.3661
X9.1102Y-4.3661
X9.1102Y-4.3661
X9.122Y-3.0039
X9.122Y-3.0039
X9.126Y-3.8937
X9.126Y-3.8937
X9.126Y-3.8937
X9.1299Y-3.8071
X9.1299Y-3.8071
X9.1299Y-3.8071
X9.1378Y-2.4291
X9.1378Y-2.4291
X9.1457Y-3.2008
X9.1457Y-3.2008
X9.1654Y-3.2874
X9.1654Y-3.2874
X9.1654Y-3.4134
X9.1654Y-3.4134
X9.1654Y-3.4134
X9.1693Y-2.6732
X9.1693Y-2.6732
X9.1693Y-2.8189
X9.1693Y-2.8189
X9.1732Y-1.7638
X9.1732Y-1.7638
X9.185Y-2.8898
X9.185Y-2.8898
X9.1929Y-1.937
X9.1929Y-1.937
X9.1929Y-2.3307
X9.1929Y-2.3307
X9.1969Y-2.1969
X9.1969Y-2.1969
X9.2008Y-2.0748
X9.2008Y-2.0748
X9.2165Y-3.5827
X9.2165Y-3.5827
X9.2165Y-3.5827
X9.2205Y-3.6732
X9.2205Y-3.6732
X9.2205Y-3.6732
X9.2283Y-2.4252
X9.2283Y-2.4252
X9.2323Y-3.0
X9.2323Y-3.0
X9.2323Y-3.2087
X9.2323Y-3.2087
X9.2362Y-2.4921
X9.2362Y-2.4921
X9.2362Y-2.5945
X9.2362Y-2.5945
X9.2362Y-2.6732
X9.2362Y-2.6732
X9.2402Y-2.8189
X9.2402Y-2.8189
X9.2559Y-1.6654
X9.2559Y-1.6654
X9.2677Y-3.752
X9.2677Y-3.752
X9.2677Y-3.752
X9.2795Y-3.9764
X9.2795Y-3.9764
X9.2795Y-3.9764
X9.2913Y-3.3031
X9.2913Y-3.3031
X9.2913Y-3.3031
X9.2913Y-3.4961
X9.2913Y-3.4961
X9.2913Y-3.4961
X9.2953Y-3.1142
X9.2953Y-3.1142
T2
X7.252Y-4.063
X7.252Y-4.063
X7.3307Y-4.1929
X7.3307Y-4.1929
X7.4567Y-4.3504
X7.4567Y-4.3504
X7.5276Y-2.315
X7.5276Y-2.315
X7.8268Y-4.2087
X7.8268Y-4.2087
X7.9331Y-4.3386
X7.9331Y-4.3386
X7.937Y-4.0945
X7.937Y-4.0945
X7.9449Y-2.252
X7.9449Y-2.252
X7.9449Y-3.9488
X7.9449Y-3.9488
X8.1024Y-2.252
X8.1024Y-2.252
X8.1378Y-3.9488
X8.1378Y-3.9488
X8.4764Y-3.9252
X8.4764Y-3.9252
X8.6417Y-3.9291
X8.6417Y-3.9291
X8.7953Y-3.9291
X8.7953Y-3.9291
X9.1102Y-4.1457
X9.3071Y-4.1457
X9.3071Y-4.1457
T1
G00X8.126Y-4.1673
M15
G01X8.2283Y-4.1673
M16
G05
G00X8.1339Y-4.3957
M15
G01X8.2205Y-4.3957
M16
G05
G00X8.3661Y-4.3287
M15
G01X8.3661Y-4.2421
M16
G05
T0
M30
