%TF.GenerationSoftware,KiCad,Pcbnew,(6.0.0-0)*%
%TF.CreationDate,2022-11-25T12:16:59-08:00*%
%TF.ProjectId,Ibanez_FL-9,4962616e-657a-45f4-964c-2d392e6b6963,v02*%
%TF.SameCoordinates,Original*%
%TF.FileFunction,Legend,Bot*%
%TF.FilePolarity,Positive*%
%FSLAX46Y46*%
G04 Gerber Fmt 4.6, Leading zero omitted, Abs format (unit mm)*
G04 Created by KiCad (PCBNEW (6.0.0-0)) date 2022-11-25 12:16:59*
%MOMM*%
%LPD*%
G01*
G04 APERTURE LIST*
%ADD10C,0.200000*%
%ADD11C,0.100000*%
%ADD12C,0.150000*%
%ADD13C,0.140000*%
G04 APERTURE END LIST*
D10*
X222118034Y-65700000D02*
G75*
G03*
X222118034Y-65700000I-1118034J0D01*
G01*
X213718034Y-81500000D02*
G75*
G03*
X213718034Y-81500000I-1118034J0D01*
G01*
X209318033Y-61800000D02*
G75*
G03*
X209318033Y-61800000I-1118033J0D01*
G01*
X220418033Y-100081967D02*
G75*
G03*
X220418033Y-100081967I-1118033J0D01*
G01*
X211818034Y-54100000D02*
G75*
G03*
X211818034Y-54100000I-1118034J0D01*
G01*
X224536066Y-111400000D02*
G75*
G03*
X224536066Y-111400000I-1118033J0D01*
G01*
X207100000Y-80200000D02*
G75*
G03*
X207100000Y-80200000I-1118034J0D01*
G01*
X224918033Y-95981967D02*
G75*
G03*
X224918033Y-95981967I-1118033J0D01*
G01*
X229718034Y-68200000D02*
G75*
G03*
X229718034Y-68200000I-1118034J0D01*
G01*
X210718034Y-76381966D02*
G75*
G03*
X210718034Y-76381966I-1118034J0D01*
G01*
X232918033Y-50200000D02*
G75*
G03*
X232918033Y-50200000I-1118033J0D01*
G01*
X192000000Y-47700000D02*
G75*
G03*
X192000000Y-47700000I-1118034J0D01*
G01*
X184818034Y-102981966D02*
G75*
G03*
X184818034Y-102981966I-1118034J0D01*
G01*
X230018034Y-84100000D02*
G75*
G03*
X230018034Y-84100000I-1118034J0D01*
G01*
X217018034Y-61800000D02*
G75*
G03*
X217018034Y-61800000I-1118034J0D01*
G01*
X222418034Y-81600000D02*
G75*
G03*
X222418034Y-81600000I-1118034J0D01*
G01*
X219000000Y-58100000D02*
G75*
G03*
X219000000Y-58100000I-1118033J0D01*
G01*
X228318034Y-61800000D02*
G75*
G03*
X228318034Y-61800000I-1118034J0D01*
G01*
D11*
X224071428Y-82178571D02*
X224095238Y-82202380D01*
X224166666Y-82226190D01*
X224214285Y-82226190D01*
X224285714Y-82202380D01*
X224333333Y-82154761D01*
X224357142Y-82107142D01*
X224380952Y-82011904D01*
X224380952Y-81940476D01*
X224357142Y-81845238D01*
X224333333Y-81797619D01*
X224285714Y-81750000D01*
X224214285Y-81726190D01*
X224166666Y-81726190D01*
X224095238Y-81750000D01*
X224071428Y-81773809D01*
X223857142Y-82226190D02*
X223857142Y-81726190D01*
X223666666Y-81726190D01*
X223619047Y-81750000D01*
X223595238Y-81773809D01*
X223571428Y-81821428D01*
X223571428Y-81892857D01*
X223595238Y-81940476D01*
X223619047Y-81964285D01*
X223666666Y-81988095D01*
X223857142Y-81988095D01*
X223095238Y-82226190D02*
X223380952Y-82226190D01*
X223238095Y-82226190D02*
X223238095Y-81726190D01*
X223285714Y-81797619D01*
X223333333Y-81845238D01*
X223380952Y-81869047D01*
X222642857Y-81726190D02*
X222880952Y-81726190D01*
X222904761Y-81964285D01*
X222880952Y-81940476D01*
X222833333Y-81916666D01*
X222714285Y-81916666D01*
X222666666Y-81940476D01*
X222642857Y-81964285D01*
X222619047Y-82011904D01*
X222619047Y-82130952D01*
X222642857Y-82178571D01*
X222666666Y-82202380D01*
X222714285Y-82226190D01*
X222833333Y-82226190D01*
X222880952Y-82202380D01*
X222904761Y-82178571D01*
D12*
X212095238Y-115452380D02*
X212095238Y-114452380D01*
X211761904Y-115166666D01*
X211428571Y-114452380D01*
X211428571Y-115452380D01*
X211000000Y-115166666D02*
X210523809Y-115166666D01*
X211095238Y-115452380D02*
X210761904Y-114452380D01*
X210428571Y-115452380D01*
X210190476Y-114452380D02*
X209523809Y-115452380D01*
X209523809Y-114452380D02*
X210190476Y-115452380D01*
X208952380Y-114452380D02*
X208761904Y-114452380D01*
X208666666Y-114500000D01*
X208571428Y-114595238D01*
X208523809Y-114785714D01*
X208523809Y-115119047D01*
X208571428Y-115309523D01*
X208666666Y-115404761D01*
X208761904Y-115452380D01*
X208952380Y-115452380D01*
X209047619Y-115404761D01*
X209142857Y-115309523D01*
X209190476Y-115119047D01*
X209190476Y-114785714D01*
X209142857Y-114595238D01*
X209047619Y-114500000D01*
X208952380Y-114452380D01*
X208095238Y-115452380D02*
X208095238Y-114452380D01*
X207523809Y-115452380D01*
X207523809Y-114452380D01*
X206285714Y-115452380D02*
X206285714Y-114452380D01*
X205952380Y-115166666D01*
X205619047Y-114452380D01*
X205619047Y-115452380D01*
X205142857Y-115452380D02*
X205142857Y-114452380D01*
X204761904Y-114452380D01*
X204666666Y-114500000D01*
X204619047Y-114547619D01*
X204571428Y-114642857D01*
X204571428Y-114785714D01*
X204619047Y-114880952D01*
X204666666Y-114928571D01*
X204761904Y-114976190D01*
X205142857Y-114976190D01*
X204142857Y-115071428D02*
X203380952Y-115071428D01*
X202571428Y-114928571D02*
X202904761Y-114928571D01*
X202904761Y-115452380D02*
X202904761Y-114452380D01*
X202428571Y-114452380D01*
X201571428Y-115452380D02*
X202047619Y-115452380D01*
X202047619Y-114452380D01*
X201047619Y-114452380D02*
X200952380Y-114452380D01*
X200857142Y-114500000D01*
X200809523Y-114547619D01*
X200761904Y-114642857D01*
X200714285Y-114833333D01*
X200714285Y-115071428D01*
X200761904Y-115261904D01*
X200809523Y-115357142D01*
X200857142Y-115404761D01*
X200952380Y-115452380D01*
X201047619Y-115452380D01*
X201142857Y-115404761D01*
X201190476Y-115357142D01*
X201238095Y-115261904D01*
X201285714Y-115071428D01*
X201285714Y-114833333D01*
X201238095Y-114642857D01*
X201190476Y-114547619D01*
X201142857Y-114500000D01*
X201047619Y-114452380D01*
X199857142Y-114452380D02*
X200047619Y-114452380D01*
X200142857Y-114500000D01*
X200190476Y-114547619D01*
X200285714Y-114690476D01*
X200333333Y-114880952D01*
X200333333Y-115261904D01*
X200285714Y-115357142D01*
X200238095Y-115404761D01*
X200142857Y-115452380D01*
X199952380Y-115452380D01*
X199857142Y-115404761D01*
X199809523Y-115357142D01*
X199761904Y-115261904D01*
X199761904Y-115023809D01*
X199809523Y-114928571D01*
X199857142Y-114880952D01*
X199952380Y-114833333D01*
X200142857Y-114833333D01*
X200238095Y-114880952D01*
X200285714Y-114928571D01*
X200333333Y-115023809D01*
X199142857Y-114452380D02*
X199047619Y-114452380D01*
X198952380Y-114500000D01*
X198904761Y-114547619D01*
X198857142Y-114642857D01*
X198809523Y-114833333D01*
X198809523Y-115071428D01*
X198857142Y-115261904D01*
X198904761Y-115357142D01*
X198952380Y-115404761D01*
X199047619Y-115452380D01*
X199142857Y-115452380D01*
X199238095Y-115404761D01*
X199285714Y-115357142D01*
X199333333Y-115261904D01*
X199380952Y-115071428D01*
X199380952Y-114833333D01*
X199333333Y-114642857D01*
X199285714Y-114547619D01*
X199238095Y-114500000D01*
X199142857Y-114452380D01*
X197857142Y-115452380D02*
X198428571Y-115452380D01*
X198142857Y-115452380D02*
X198142857Y-114452380D01*
X198238095Y-114595238D01*
X198333333Y-114690476D01*
X198428571Y-114738095D01*
D11*
X224071428Y-66178571D02*
X224095238Y-66202380D01*
X224166666Y-66226190D01*
X224214285Y-66226190D01*
X224285714Y-66202380D01*
X224333333Y-66154761D01*
X224357142Y-66107142D01*
X224380952Y-66011904D01*
X224380952Y-65940476D01*
X224357142Y-65845238D01*
X224333333Y-65797619D01*
X224285714Y-65750000D01*
X224214285Y-65726190D01*
X224166666Y-65726190D01*
X224095238Y-65750000D01*
X224071428Y-65773809D01*
X223857142Y-66226190D02*
X223857142Y-65726190D01*
X223666666Y-65726190D01*
X223619047Y-65750000D01*
X223595238Y-65773809D01*
X223571428Y-65821428D01*
X223571428Y-65892857D01*
X223595238Y-65940476D01*
X223619047Y-65964285D01*
X223666666Y-65988095D01*
X223857142Y-65988095D01*
X223095238Y-66226190D02*
X223380952Y-66226190D01*
X223238095Y-66226190D02*
X223238095Y-65726190D01*
X223285714Y-65797619D01*
X223333333Y-65845238D01*
X223380952Y-65869047D01*
X222619047Y-66226190D02*
X222904761Y-66226190D01*
X222761904Y-66226190D02*
X222761904Y-65726190D01*
X222809523Y-65797619D01*
X222857142Y-65845238D01*
X222904761Y-65869047D01*
X220335714Y-102935714D02*
X219954761Y-102935714D01*
X220145238Y-103126190D02*
X220145238Y-102745238D01*
X219550000Y-102864285D02*
X219478571Y-102888095D01*
X219454761Y-102911904D01*
X219430952Y-102959523D01*
X219430952Y-103030952D01*
X219454761Y-103078571D01*
X219478571Y-103102380D01*
X219526190Y-103126190D01*
X219716666Y-103126190D01*
X219716666Y-102626190D01*
X219550000Y-102626190D01*
X219502380Y-102650000D01*
X219478571Y-102673809D01*
X219454761Y-102721428D01*
X219454761Y-102769047D01*
X219478571Y-102816666D01*
X219502380Y-102840476D01*
X219550000Y-102864285D01*
X219716666Y-102864285D01*
X219240476Y-102983333D02*
X219002380Y-102983333D01*
X219288095Y-103126190D02*
X219121428Y-102626190D01*
X218954761Y-103126190D01*
X218859523Y-102626190D02*
X218573809Y-102626190D01*
X218716666Y-103126190D02*
X218716666Y-102626190D01*
X218478571Y-102626190D02*
X218192857Y-102626190D01*
X218335714Y-103126190D02*
X218335714Y-102626190D01*
X224736428Y-93776071D02*
X224760238Y-93799880D01*
X224831666Y-93823690D01*
X224879285Y-93823690D01*
X224950714Y-93799880D01*
X224998333Y-93752261D01*
X225022142Y-93704642D01*
X225045952Y-93609404D01*
X225045952Y-93537976D01*
X225022142Y-93442738D01*
X224998333Y-93395119D01*
X224950714Y-93347500D01*
X224879285Y-93323690D01*
X224831666Y-93323690D01*
X224760238Y-93347500D01*
X224736428Y-93371309D01*
X224522142Y-93823690D02*
X224522142Y-93323690D01*
X224331666Y-93323690D01*
X224284047Y-93347500D01*
X224260238Y-93371309D01*
X224236428Y-93418928D01*
X224236428Y-93490357D01*
X224260238Y-93537976D01*
X224284047Y-93561785D01*
X224331666Y-93585595D01*
X224522142Y-93585595D01*
X224045952Y-93371309D02*
X224022142Y-93347500D01*
X223974523Y-93323690D01*
X223855476Y-93323690D01*
X223807857Y-93347500D01*
X223784047Y-93371309D01*
X223760238Y-93418928D01*
X223760238Y-93466547D01*
X223784047Y-93537976D01*
X224069761Y-93823690D01*
X223760238Y-93823690D01*
X225784047Y-94438214D02*
X225403095Y-94438214D01*
X225593571Y-94628690D02*
X225593571Y-94247738D01*
X224950714Y-94295357D02*
X224950714Y-94628690D01*
X225069761Y-94104880D02*
X225188809Y-94462023D01*
X224879285Y-94462023D01*
X224688809Y-94581071D02*
X224665000Y-94604880D01*
X224688809Y-94628690D01*
X224712619Y-94604880D01*
X224688809Y-94581071D01*
X224688809Y-94628690D01*
X224212619Y-94128690D02*
X224450714Y-94128690D01*
X224474523Y-94366785D01*
X224450714Y-94342976D01*
X224403095Y-94319166D01*
X224284047Y-94319166D01*
X224236428Y-94342976D01*
X224212619Y-94366785D01*
X224188809Y-94414404D01*
X224188809Y-94533452D01*
X224212619Y-94581071D01*
X224236428Y-94604880D01*
X224284047Y-94628690D01*
X224403095Y-94628690D01*
X224450714Y-94604880D01*
X224474523Y-94581071D01*
X224045952Y-94128690D02*
X223879285Y-94628690D01*
X223712619Y-94128690D01*
D13*
X211983333Y-116816666D02*
X211983333Y-116116666D01*
X211416666Y-116450000D02*
X211316666Y-116483333D01*
X211283333Y-116516666D01*
X211250000Y-116583333D01*
X211250000Y-116683333D01*
X211283333Y-116750000D01*
X211316666Y-116783333D01*
X211383333Y-116816666D01*
X211650000Y-116816666D01*
X211650000Y-116116666D01*
X211416666Y-116116666D01*
X211350000Y-116150000D01*
X211316666Y-116183333D01*
X211283333Y-116250000D01*
X211283333Y-116316666D01*
X211316666Y-116383333D01*
X211350000Y-116416666D01*
X211416666Y-116450000D01*
X211650000Y-116450000D01*
X210983333Y-116616666D02*
X210650000Y-116616666D01*
X211050000Y-116816666D02*
X210816666Y-116116666D01*
X210583333Y-116816666D01*
X210350000Y-116816666D02*
X210350000Y-116116666D01*
X209950000Y-116816666D01*
X209950000Y-116116666D01*
X209616666Y-116450000D02*
X209383333Y-116450000D01*
X209283333Y-116816666D02*
X209616666Y-116816666D01*
X209616666Y-116116666D01*
X209283333Y-116116666D01*
X209050000Y-116116666D02*
X208583333Y-116116666D01*
X209050000Y-116816666D01*
X208583333Y-116816666D01*
X207550000Y-116450000D02*
X207783333Y-116450000D01*
X207783333Y-116816666D02*
X207783333Y-116116666D01*
X207450000Y-116116666D01*
X206850000Y-116816666D02*
X207183333Y-116816666D01*
X207183333Y-116116666D01*
X206583333Y-116816666D02*
X206450000Y-116816666D01*
X206383333Y-116783333D01*
X206350000Y-116750000D01*
X206283333Y-116650000D01*
X206250000Y-116516666D01*
X206250000Y-116250000D01*
X206283333Y-116183333D01*
X206316666Y-116150000D01*
X206383333Y-116116666D01*
X206516666Y-116116666D01*
X206583333Y-116150000D01*
X206616666Y-116183333D01*
X206650000Y-116250000D01*
X206650000Y-116416666D01*
X206616666Y-116483333D01*
X206583333Y-116516666D01*
X206516666Y-116550000D01*
X206383333Y-116550000D01*
X206316666Y-116516666D01*
X206283333Y-116483333D01*
X206250000Y-116416666D01*
X205183333Y-116450000D02*
X205416666Y-116450000D01*
X205416666Y-116816666D02*
X205416666Y-116116666D01*
X205083333Y-116116666D01*
X204483333Y-116816666D02*
X204816666Y-116816666D01*
X204816666Y-116116666D01*
X204283333Y-116616666D02*
X203950000Y-116616666D01*
X204350000Y-116816666D02*
X204116666Y-116116666D01*
X203883333Y-116816666D01*
X203650000Y-116816666D02*
X203650000Y-116116666D01*
X203250000Y-116816666D01*
X203250000Y-116116666D01*
X202550000Y-116150000D02*
X202616666Y-116116666D01*
X202716666Y-116116666D01*
X202816666Y-116150000D01*
X202883333Y-116216666D01*
X202916666Y-116283333D01*
X202950000Y-116416666D01*
X202950000Y-116516666D01*
X202916666Y-116650000D01*
X202883333Y-116716666D01*
X202816666Y-116783333D01*
X202716666Y-116816666D01*
X202650000Y-116816666D01*
X202550000Y-116783333D01*
X202516666Y-116750000D01*
X202516666Y-116516666D01*
X202650000Y-116516666D01*
X202216666Y-116450000D02*
X201983333Y-116450000D01*
X201883333Y-116816666D02*
X202216666Y-116816666D01*
X202216666Y-116116666D01*
X201883333Y-116116666D01*
X201183333Y-116816666D02*
X201416666Y-116483333D01*
X201583333Y-116816666D02*
X201583333Y-116116666D01*
X201316666Y-116116666D01*
X201250000Y-116150000D01*
X201216666Y-116183333D01*
X201183333Y-116250000D01*
X201183333Y-116350000D01*
X201216666Y-116416666D01*
X201250000Y-116450000D01*
X201316666Y-116483333D01*
X201583333Y-116483333D01*
X199983333Y-116816666D02*
X200383333Y-116816666D01*
X200183333Y-116816666D02*
X200183333Y-116116666D01*
X200250000Y-116216666D01*
X200316666Y-116283333D01*
X200383333Y-116316666D01*
X199650000Y-116816666D02*
X199516666Y-116816666D01*
X199450000Y-116783333D01*
X199416666Y-116750000D01*
X199350000Y-116650000D01*
X199316666Y-116516666D01*
X199316666Y-116250000D01*
X199350000Y-116183333D01*
X199383333Y-116150000D01*
X199450000Y-116116666D01*
X199583333Y-116116666D01*
X199650000Y-116150000D01*
X199683333Y-116183333D01*
X199716666Y-116250000D01*
X199716666Y-116416666D01*
X199683333Y-116483333D01*
X199650000Y-116516666D01*
X199583333Y-116550000D01*
X199450000Y-116550000D01*
X199383333Y-116516666D01*
X199350000Y-116483333D01*
X199316666Y-116416666D01*
X198916666Y-116416666D02*
X198983333Y-116383333D01*
X199016666Y-116350000D01*
X199050000Y-116283333D01*
X199050000Y-116250000D01*
X199016666Y-116183333D01*
X198983333Y-116150000D01*
X198916666Y-116116666D01*
X198783333Y-116116666D01*
X198716666Y-116150000D01*
X198683333Y-116183333D01*
X198650000Y-116250000D01*
X198650000Y-116283333D01*
X198683333Y-116350000D01*
X198716666Y-116383333D01*
X198783333Y-116416666D01*
X198916666Y-116416666D01*
X198983333Y-116450000D01*
X199016666Y-116483333D01*
X199050000Y-116550000D01*
X199050000Y-116683333D01*
X199016666Y-116750000D01*
X198983333Y-116783333D01*
X198916666Y-116816666D01*
X198783333Y-116816666D01*
X198716666Y-116783333D01*
X198683333Y-116750000D01*
X198650000Y-116683333D01*
X198650000Y-116550000D01*
X198683333Y-116483333D01*
X198716666Y-116450000D01*
X198783333Y-116416666D01*
X198016666Y-116116666D02*
X198350000Y-116116666D01*
X198383333Y-116450000D01*
X198350000Y-116416666D01*
X198283333Y-116383333D01*
X198116666Y-116383333D01*
X198050000Y-116416666D01*
X198016666Y-116450000D01*
X197983333Y-116516666D01*
X197983333Y-116683333D01*
X198016666Y-116750000D01*
X198050000Y-116783333D01*
X198116666Y-116816666D01*
X198283333Y-116816666D01*
X198350000Y-116783333D01*
X198383333Y-116750000D01*
D11*
X204371428Y-80478571D02*
X204395238Y-80502380D01*
X204466666Y-80526190D01*
X204514285Y-80526190D01*
X204585714Y-80502380D01*
X204633333Y-80454761D01*
X204657142Y-80407142D01*
X204680952Y-80311904D01*
X204680952Y-80240476D01*
X204657142Y-80145238D01*
X204633333Y-80097619D01*
X204585714Y-80050000D01*
X204514285Y-80026190D01*
X204466666Y-80026190D01*
X204395238Y-80050000D01*
X204371428Y-80073809D01*
X204157142Y-80526190D02*
X204157142Y-80026190D01*
X203966666Y-80026190D01*
X203919047Y-80050000D01*
X203895238Y-80073809D01*
X203871428Y-80121428D01*
X203871428Y-80192857D01*
X203895238Y-80240476D01*
X203919047Y-80264285D01*
X203966666Y-80288095D01*
X204157142Y-80288095D01*
X203395238Y-80526190D02*
X203680952Y-80526190D01*
X203538095Y-80526190D02*
X203538095Y-80026190D01*
X203585714Y-80097619D01*
X203633333Y-80145238D01*
X203680952Y-80169047D01*
X202966666Y-80192857D02*
X202966666Y-80526190D01*
X203085714Y-80002380D02*
X203204761Y-80359523D01*
X202895238Y-80359523D01*
X181733333Y-103178571D02*
X181757142Y-103202380D01*
X181828571Y-103226190D01*
X181876190Y-103226190D01*
X181947619Y-103202380D01*
X181995238Y-103154761D01*
X182019047Y-103107142D01*
X182042857Y-103011904D01*
X182042857Y-102940476D01*
X182019047Y-102845238D01*
X181995238Y-102797619D01*
X181947619Y-102750000D01*
X181876190Y-102726190D01*
X181828571Y-102726190D01*
X181757142Y-102750000D01*
X181733333Y-102773809D01*
X181519047Y-103226190D02*
X181519047Y-102726190D01*
X181328571Y-102726190D01*
X181280952Y-102750000D01*
X181257142Y-102773809D01*
X181233333Y-102821428D01*
X181233333Y-102892857D01*
X181257142Y-102940476D01*
X181280952Y-102964285D01*
X181328571Y-102988095D01*
X181519047Y-102988095D01*
X180947619Y-102940476D02*
X180995238Y-102916666D01*
X181019047Y-102892857D01*
X181042857Y-102845238D01*
X181042857Y-102821428D01*
X181019047Y-102773809D01*
X180995238Y-102750000D01*
X180947619Y-102726190D01*
X180852380Y-102726190D01*
X180804761Y-102750000D01*
X180780952Y-102773809D01*
X180757142Y-102821428D01*
X180757142Y-102845238D01*
X180780952Y-102892857D01*
X180804761Y-102916666D01*
X180852380Y-102940476D01*
X180947619Y-102940476D01*
X180995238Y-102964285D01*
X181019047Y-102988095D01*
X181042857Y-103035714D01*
X181042857Y-103130952D01*
X181019047Y-103178571D01*
X180995238Y-103202380D01*
X180947619Y-103226190D01*
X180852380Y-103226190D01*
X180804761Y-103202380D01*
X180780952Y-103178571D01*
X180757142Y-103130952D01*
X180757142Y-103035714D01*
X180780952Y-102988095D01*
X180804761Y-102964285D01*
X180852380Y-102940476D01*
X226833333Y-68378571D02*
X226857142Y-68402380D01*
X226928571Y-68426190D01*
X226976190Y-68426190D01*
X227047619Y-68402380D01*
X227095238Y-68354761D01*
X227119047Y-68307142D01*
X227142857Y-68211904D01*
X227142857Y-68140476D01*
X227119047Y-68045238D01*
X227095238Y-67997619D01*
X227047619Y-67950000D01*
X226976190Y-67926190D01*
X226928571Y-67926190D01*
X226857142Y-67950000D01*
X226833333Y-67973809D01*
X226619047Y-68426190D02*
X226619047Y-67926190D01*
X226428571Y-67926190D01*
X226380952Y-67950000D01*
X226357142Y-67973809D01*
X226333333Y-68021428D01*
X226333333Y-68092857D01*
X226357142Y-68140476D01*
X226380952Y-68164285D01*
X226428571Y-68188095D01*
X226619047Y-68188095D01*
X225880952Y-67926190D02*
X226119047Y-67926190D01*
X226142857Y-68164285D01*
X226119047Y-68140476D01*
X226071428Y-68116666D01*
X225952380Y-68116666D01*
X225904761Y-68140476D01*
X225880952Y-68164285D01*
X225857142Y-68211904D01*
X225857142Y-68330952D01*
X225880952Y-68378571D01*
X225904761Y-68402380D01*
X225952380Y-68426190D01*
X226071428Y-68426190D01*
X226119047Y-68402380D01*
X226142857Y-68378571D01*
X213871428Y-83278571D02*
X213895238Y-83302380D01*
X213966666Y-83326190D01*
X214014285Y-83326190D01*
X214085714Y-83302380D01*
X214133333Y-83254761D01*
X214157142Y-83207142D01*
X214180952Y-83111904D01*
X214180952Y-83040476D01*
X214157142Y-82945238D01*
X214133333Y-82897619D01*
X214085714Y-82850000D01*
X214014285Y-82826190D01*
X213966666Y-82826190D01*
X213895238Y-82850000D01*
X213871428Y-82873809D01*
X213657142Y-83326190D02*
X213657142Y-82826190D01*
X213466666Y-82826190D01*
X213419047Y-82850000D01*
X213395238Y-82873809D01*
X213371428Y-82921428D01*
X213371428Y-82992857D01*
X213395238Y-83040476D01*
X213419047Y-83064285D01*
X213466666Y-83088095D01*
X213657142Y-83088095D01*
X212895238Y-83326190D02*
X213180952Y-83326190D01*
X213038095Y-83326190D02*
X213038095Y-82826190D01*
X213085714Y-82897619D01*
X213133333Y-82945238D01*
X213180952Y-82969047D01*
X212728571Y-82826190D02*
X212419047Y-82826190D01*
X212585714Y-83016666D01*
X212514285Y-83016666D01*
X212466666Y-83040476D01*
X212442857Y-83064285D01*
X212419047Y-83111904D01*
X212419047Y-83230952D01*
X212442857Y-83278571D01*
X212466666Y-83302380D01*
X212514285Y-83326190D01*
X212657142Y-83326190D01*
X212704761Y-83302380D01*
X212728571Y-83278571D01*
X211133333Y-56078571D02*
X211157142Y-56102380D01*
X211228571Y-56126190D01*
X211276190Y-56126190D01*
X211347619Y-56102380D01*
X211395238Y-56054761D01*
X211419047Y-56007142D01*
X211442857Y-55911904D01*
X211442857Y-55840476D01*
X211419047Y-55745238D01*
X211395238Y-55697619D01*
X211347619Y-55650000D01*
X211276190Y-55626190D01*
X211228571Y-55626190D01*
X211157142Y-55650000D01*
X211133333Y-55673809D01*
X210919047Y-56126190D02*
X210919047Y-55626190D01*
X210728571Y-55626190D01*
X210680952Y-55650000D01*
X210657142Y-55673809D01*
X210633333Y-55721428D01*
X210633333Y-55792857D01*
X210657142Y-55840476D01*
X210680952Y-55864285D01*
X210728571Y-55888095D01*
X210919047Y-55888095D01*
X210395238Y-56126190D02*
X210300000Y-56126190D01*
X210252380Y-56102380D01*
X210228571Y-56078571D01*
X210180952Y-56007142D01*
X210157142Y-55911904D01*
X210157142Y-55721428D01*
X210180952Y-55673809D01*
X210204761Y-55650000D01*
X210252380Y-55626190D01*
X210347619Y-55626190D01*
X210395238Y-55650000D01*
X210419047Y-55673809D01*
X210442857Y-55721428D01*
X210442857Y-55840476D01*
X210419047Y-55888095D01*
X210395238Y-55911904D01*
X210347619Y-55935714D01*
X210252380Y-55935714D01*
X210204761Y-55911904D01*
X210180952Y-55888095D01*
X210157142Y-55840476D01*
X208671428Y-77778571D02*
X208695238Y-77802380D01*
X208766666Y-77826190D01*
X208814285Y-77826190D01*
X208885714Y-77802380D01*
X208933333Y-77754761D01*
X208957142Y-77707142D01*
X208980952Y-77611904D01*
X208980952Y-77540476D01*
X208957142Y-77445238D01*
X208933333Y-77397619D01*
X208885714Y-77350000D01*
X208814285Y-77326190D01*
X208766666Y-77326190D01*
X208695238Y-77350000D01*
X208671428Y-77373809D01*
X208457142Y-77826190D02*
X208457142Y-77326190D01*
X208266666Y-77326190D01*
X208219047Y-77350000D01*
X208195238Y-77373809D01*
X208171428Y-77421428D01*
X208171428Y-77492857D01*
X208195238Y-77540476D01*
X208219047Y-77564285D01*
X208266666Y-77588095D01*
X208457142Y-77588095D01*
X207695238Y-77826190D02*
X207980952Y-77826190D01*
X207838095Y-77826190D02*
X207838095Y-77326190D01*
X207885714Y-77397619D01*
X207933333Y-77445238D01*
X207980952Y-77469047D01*
X207504761Y-77373809D02*
X207480952Y-77350000D01*
X207433333Y-77326190D01*
X207314285Y-77326190D01*
X207266666Y-77350000D01*
X207242857Y-77373809D01*
X207219047Y-77421428D01*
X207219047Y-77469047D01*
X207242857Y-77540476D01*
X207528571Y-77826190D01*
X207219047Y-77826190D01*
X201321428Y-106923690D02*
X201559523Y-106923690D01*
X201559523Y-106423690D01*
X201154761Y-106661785D02*
X200988095Y-106661785D01*
X200916666Y-106923690D02*
X201154761Y-106923690D01*
X201154761Y-106423690D01*
X200916666Y-106423690D01*
X200702380Y-106923690D02*
X200702380Y-106423690D01*
X200583333Y-106423690D01*
X200511904Y-106447500D01*
X200464285Y-106495119D01*
X200440476Y-106542738D01*
X200416666Y-106637976D01*
X200416666Y-106709404D01*
X200440476Y-106804642D01*
X200464285Y-106852261D01*
X200511904Y-106899880D01*
X200583333Y-106923690D01*
X200702380Y-106923690D01*
X202119047Y-107585833D02*
X201880952Y-107585833D01*
X202166666Y-107728690D02*
X202000000Y-107228690D01*
X201833333Y-107728690D01*
X201666666Y-107728690D02*
X201666666Y-107228690D01*
X201380952Y-107728690D01*
X201380952Y-107228690D01*
X201047619Y-107228690D02*
X200952380Y-107228690D01*
X200904761Y-107252500D01*
X200857142Y-107300119D01*
X200833333Y-107395357D01*
X200833333Y-107562023D01*
X200857142Y-107657261D01*
X200904761Y-107704880D01*
X200952380Y-107728690D01*
X201047619Y-107728690D01*
X201095238Y-107704880D01*
X201142857Y-107657261D01*
X201166666Y-107562023D01*
X201166666Y-107395357D01*
X201142857Y-107300119D01*
X201095238Y-107252500D01*
X201047619Y-107228690D01*
X200619047Y-107728690D02*
X200619047Y-107228690D01*
X200500000Y-107228690D01*
X200428571Y-107252500D01*
X200380952Y-107300119D01*
X200357142Y-107347738D01*
X200333333Y-107442976D01*
X200333333Y-107514404D01*
X200357142Y-107609642D01*
X200380952Y-107657261D01*
X200428571Y-107704880D01*
X200500000Y-107728690D01*
X200619047Y-107728690D01*
X200119047Y-107466785D02*
X199952380Y-107466785D01*
X199880952Y-107728690D02*
X200119047Y-107728690D01*
X200119047Y-107228690D01*
X199880952Y-107228690D01*
X208433333Y-59476071D02*
X208457142Y-59499880D01*
X208528571Y-59523690D01*
X208576190Y-59523690D01*
X208647619Y-59499880D01*
X208695238Y-59452261D01*
X208719047Y-59404642D01*
X208742857Y-59309404D01*
X208742857Y-59237976D01*
X208719047Y-59142738D01*
X208695238Y-59095119D01*
X208647619Y-59047500D01*
X208576190Y-59023690D01*
X208528571Y-59023690D01*
X208457142Y-59047500D01*
X208433333Y-59071309D01*
X208219047Y-59523690D02*
X208219047Y-59023690D01*
X208028571Y-59023690D01*
X207980952Y-59047500D01*
X207957142Y-59071309D01*
X207933333Y-59118928D01*
X207933333Y-59190357D01*
X207957142Y-59237976D01*
X207980952Y-59261785D01*
X208028571Y-59285595D01*
X208219047Y-59285595D01*
X207766666Y-59023690D02*
X207457142Y-59023690D01*
X207623809Y-59214166D01*
X207552380Y-59214166D01*
X207504761Y-59237976D01*
X207480952Y-59261785D01*
X207457142Y-59309404D01*
X207457142Y-59428452D01*
X207480952Y-59476071D01*
X207504761Y-59499880D01*
X207552380Y-59523690D01*
X207695238Y-59523690D01*
X207742857Y-59499880D01*
X207766666Y-59476071D01*
X208742857Y-60138214D02*
X208361904Y-60138214D01*
X208552380Y-60328690D02*
X208552380Y-59947738D01*
X207885714Y-59828690D02*
X208123809Y-59828690D01*
X208147619Y-60066785D01*
X208123809Y-60042976D01*
X208076190Y-60019166D01*
X207957142Y-60019166D01*
X207909523Y-60042976D01*
X207885714Y-60066785D01*
X207861904Y-60114404D01*
X207861904Y-60233452D01*
X207885714Y-60281071D01*
X207909523Y-60304880D01*
X207957142Y-60328690D01*
X208076190Y-60328690D01*
X208123809Y-60304880D01*
X208147619Y-60281071D01*
X207719047Y-59828690D02*
X207552380Y-60328690D01*
X207385714Y-59828690D01*
X227533333Y-60178571D02*
X227557142Y-60202380D01*
X227628571Y-60226190D01*
X227676190Y-60226190D01*
X227747619Y-60202380D01*
X227795238Y-60154761D01*
X227819047Y-60107142D01*
X227842857Y-60011904D01*
X227842857Y-59940476D01*
X227819047Y-59845238D01*
X227795238Y-59797619D01*
X227747619Y-59750000D01*
X227676190Y-59726190D01*
X227628571Y-59726190D01*
X227557142Y-59750000D01*
X227533333Y-59773809D01*
X227319047Y-60226190D02*
X227319047Y-59726190D01*
X227128571Y-59726190D01*
X227080952Y-59750000D01*
X227057142Y-59773809D01*
X227033333Y-59821428D01*
X227033333Y-59892857D01*
X227057142Y-59940476D01*
X227080952Y-59964285D01*
X227128571Y-59988095D01*
X227319047Y-59988095D01*
X226866666Y-59726190D02*
X226533333Y-59726190D01*
X226747619Y-60226190D01*
X215933333Y-60178571D02*
X215957142Y-60202380D01*
X216028571Y-60226190D01*
X216076190Y-60226190D01*
X216147619Y-60202380D01*
X216195238Y-60154761D01*
X216219047Y-60107142D01*
X216242857Y-60011904D01*
X216242857Y-59940476D01*
X216219047Y-59845238D01*
X216195238Y-59797619D01*
X216147619Y-59750000D01*
X216076190Y-59726190D01*
X216028571Y-59726190D01*
X215957142Y-59750000D01*
X215933333Y-59773809D01*
X215719047Y-60226190D02*
X215719047Y-59726190D01*
X215528571Y-59726190D01*
X215480952Y-59750000D01*
X215457142Y-59773809D01*
X215433333Y-59821428D01*
X215433333Y-59892857D01*
X215457142Y-59940476D01*
X215480952Y-59964285D01*
X215528571Y-59988095D01*
X215719047Y-59988095D01*
X214957142Y-60226190D02*
X215242857Y-60226190D01*
X215100000Y-60226190D02*
X215100000Y-59726190D01*
X215147619Y-59797619D01*
X215195238Y-59845238D01*
X215242857Y-59869047D01*
X189821428Y-113423690D02*
X190059523Y-113423690D01*
X190059523Y-112923690D01*
X189654761Y-113161785D02*
X189488095Y-113161785D01*
X189416666Y-113423690D02*
X189654761Y-113423690D01*
X189654761Y-112923690D01*
X189416666Y-112923690D01*
X189202380Y-113423690D02*
X189202380Y-112923690D01*
X189083333Y-112923690D01*
X189011904Y-112947500D01*
X188964285Y-112995119D01*
X188940476Y-113042738D01*
X188916666Y-113137976D01*
X188916666Y-113209404D01*
X188940476Y-113304642D01*
X188964285Y-113352261D01*
X189011904Y-113399880D01*
X189083333Y-113423690D01*
X189202380Y-113423690D01*
X190750000Y-114181071D02*
X190773809Y-114204880D01*
X190845238Y-114228690D01*
X190892857Y-114228690D01*
X190964285Y-114204880D01*
X191011904Y-114157261D01*
X191035714Y-114109642D01*
X191059523Y-114014404D01*
X191059523Y-113942976D01*
X191035714Y-113847738D01*
X191011904Y-113800119D01*
X190964285Y-113752500D01*
X190892857Y-113728690D01*
X190845238Y-113728690D01*
X190773809Y-113752500D01*
X190750000Y-113776309D01*
X190559523Y-114085833D02*
X190321428Y-114085833D01*
X190607142Y-114228690D02*
X190440476Y-113728690D01*
X190273809Y-114228690D01*
X190178571Y-113728690D02*
X189892857Y-113728690D01*
X190035714Y-114228690D02*
X190035714Y-113728690D01*
X189726190Y-114228690D02*
X189726190Y-113728690D01*
X189726190Y-113966785D02*
X189440476Y-113966785D01*
X189440476Y-114228690D02*
X189440476Y-113728690D01*
X189107142Y-113728690D02*
X189011904Y-113728690D01*
X188964285Y-113752500D01*
X188916666Y-113800119D01*
X188892857Y-113895357D01*
X188892857Y-114062023D01*
X188916666Y-114157261D01*
X188964285Y-114204880D01*
X189011904Y-114228690D01*
X189107142Y-114228690D01*
X189154761Y-114204880D01*
X189202380Y-114157261D01*
X189226190Y-114062023D01*
X189226190Y-113895357D01*
X189202380Y-113800119D01*
X189154761Y-113752500D01*
X189107142Y-113728690D01*
X188678571Y-114228690D02*
X188678571Y-113728690D01*
X188559523Y-113728690D01*
X188488095Y-113752500D01*
X188440476Y-113800119D01*
X188416666Y-113847738D01*
X188392857Y-113942976D01*
X188392857Y-114014404D01*
X188416666Y-114109642D01*
X188440476Y-114157261D01*
X188488095Y-114204880D01*
X188559523Y-114228690D01*
X188678571Y-114228690D01*
X188178571Y-113966785D02*
X188011904Y-113966785D01*
X187940476Y-114228690D02*
X188178571Y-114228690D01*
X188178571Y-113728690D01*
X187940476Y-113728690D01*
X189833333Y-49278571D02*
X189857142Y-49302380D01*
X189928571Y-49326190D01*
X189976190Y-49326190D01*
X190047619Y-49302380D01*
X190095238Y-49254761D01*
X190119047Y-49207142D01*
X190142857Y-49111904D01*
X190142857Y-49040476D01*
X190119047Y-48945238D01*
X190095238Y-48897619D01*
X190047619Y-48850000D01*
X189976190Y-48826190D01*
X189928571Y-48826190D01*
X189857142Y-48850000D01*
X189833333Y-48873809D01*
X189619047Y-49326190D02*
X189619047Y-48826190D01*
X189428571Y-48826190D01*
X189380952Y-48850000D01*
X189357142Y-48873809D01*
X189333333Y-48921428D01*
X189333333Y-48992857D01*
X189357142Y-49040476D01*
X189380952Y-49064285D01*
X189428571Y-49088095D01*
X189619047Y-49088095D01*
X189047619Y-49040476D02*
X189095238Y-49016666D01*
X189119047Y-48992857D01*
X189142857Y-48945238D01*
X189142857Y-48921428D01*
X189119047Y-48873809D01*
X189095238Y-48850000D01*
X189047619Y-48826190D01*
X188952380Y-48826190D01*
X188904761Y-48850000D01*
X188880952Y-48873809D01*
X188857142Y-48921428D01*
X188857142Y-48945238D01*
X188880952Y-48992857D01*
X188904761Y-49016666D01*
X188952380Y-49040476D01*
X189047619Y-49040476D01*
X189095238Y-49064285D01*
X189119047Y-49088095D01*
X189142857Y-49135714D01*
X189142857Y-49230952D01*
X189119047Y-49278571D01*
X189095238Y-49302380D01*
X189047619Y-49326190D01*
X188952380Y-49326190D01*
X188904761Y-49302380D01*
X188880952Y-49278571D01*
X188857142Y-49230952D01*
X188857142Y-49135714D01*
X188880952Y-49088095D01*
X188904761Y-49064285D01*
X188952380Y-49040476D01*
X230233333Y-49578571D02*
X230257142Y-49602380D01*
X230328571Y-49626190D01*
X230376190Y-49626190D01*
X230447619Y-49602380D01*
X230495238Y-49554761D01*
X230519047Y-49507142D01*
X230542857Y-49411904D01*
X230542857Y-49340476D01*
X230519047Y-49245238D01*
X230495238Y-49197619D01*
X230447619Y-49150000D01*
X230376190Y-49126190D01*
X230328571Y-49126190D01*
X230257142Y-49150000D01*
X230233333Y-49173809D01*
X230019047Y-49626190D02*
X230019047Y-49126190D01*
X229828571Y-49126190D01*
X229780952Y-49150000D01*
X229757142Y-49173809D01*
X229733333Y-49221428D01*
X229733333Y-49292857D01*
X229757142Y-49340476D01*
X229780952Y-49364285D01*
X229828571Y-49388095D01*
X230019047Y-49388095D01*
X229304761Y-49126190D02*
X229400000Y-49126190D01*
X229447619Y-49150000D01*
X229471428Y-49173809D01*
X229519047Y-49245238D01*
X229542857Y-49340476D01*
X229542857Y-49530952D01*
X229519047Y-49578571D01*
X229495238Y-49602380D01*
X229447619Y-49626190D01*
X229352380Y-49626190D01*
X229304761Y-49602380D01*
X229280952Y-49578571D01*
X229257142Y-49530952D01*
X229257142Y-49411904D01*
X229280952Y-49364285D01*
X229304761Y-49340476D01*
X229352380Y-49316666D01*
X229447619Y-49316666D01*
X229495238Y-49340476D01*
X229519047Y-49364285D01*
X229542857Y-49411904D01*
X218133333Y-58178571D02*
X218157142Y-58202380D01*
X218228571Y-58226190D01*
X218276190Y-58226190D01*
X218347619Y-58202380D01*
X218395238Y-58154761D01*
X218419047Y-58107142D01*
X218442857Y-58011904D01*
X218442857Y-57940476D01*
X218419047Y-57845238D01*
X218395238Y-57797619D01*
X218347619Y-57750000D01*
X218276190Y-57726190D01*
X218228571Y-57726190D01*
X218157142Y-57750000D01*
X218133333Y-57773809D01*
X217919047Y-58226190D02*
X217919047Y-57726190D01*
X217728571Y-57726190D01*
X217680952Y-57750000D01*
X217657142Y-57773809D01*
X217633333Y-57821428D01*
X217633333Y-57892857D01*
X217657142Y-57940476D01*
X217680952Y-57964285D01*
X217728571Y-57988095D01*
X217919047Y-57988095D01*
X217157142Y-58226190D02*
X217442857Y-58226190D01*
X217300000Y-58226190D02*
X217300000Y-57726190D01*
X217347619Y-57797619D01*
X217395238Y-57845238D01*
X217442857Y-57869047D01*
X221871428Y-111276071D02*
X221895238Y-111299880D01*
X221966666Y-111323690D01*
X222014285Y-111323690D01*
X222085714Y-111299880D01*
X222133333Y-111252261D01*
X222157142Y-111204642D01*
X222180952Y-111109404D01*
X222180952Y-111037976D01*
X222157142Y-110942738D01*
X222133333Y-110895119D01*
X222085714Y-110847500D01*
X222014285Y-110823690D01*
X221966666Y-110823690D01*
X221895238Y-110847500D01*
X221871428Y-110871309D01*
X221657142Y-111323690D02*
X221657142Y-110823690D01*
X221466666Y-110823690D01*
X221419047Y-110847500D01*
X221395238Y-110871309D01*
X221371428Y-110918928D01*
X221371428Y-110990357D01*
X221395238Y-111037976D01*
X221419047Y-111061785D01*
X221466666Y-111085595D01*
X221657142Y-111085595D01*
X220895238Y-111323690D02*
X221180952Y-111323690D01*
X221038095Y-111323690D02*
X221038095Y-110823690D01*
X221085714Y-110895119D01*
X221133333Y-110942738D01*
X221180952Y-110966547D01*
X220585714Y-110823690D02*
X220538095Y-110823690D01*
X220490476Y-110847500D01*
X220466666Y-110871309D01*
X220442857Y-110918928D01*
X220419047Y-111014166D01*
X220419047Y-111133214D01*
X220442857Y-111228452D01*
X220466666Y-111276071D01*
X220490476Y-111299880D01*
X220538095Y-111323690D01*
X220585714Y-111323690D01*
X220633333Y-111299880D01*
X220657142Y-111276071D01*
X220680952Y-111228452D01*
X220704761Y-111133214D01*
X220704761Y-111014166D01*
X220680952Y-110918928D01*
X220657142Y-110871309D01*
X220633333Y-110847500D01*
X220585714Y-110823690D01*
X221942857Y-111938214D02*
X221561904Y-111938214D01*
X221752380Y-112128690D02*
X221752380Y-111747738D01*
X221300000Y-112128690D02*
X221204761Y-112128690D01*
X221157142Y-112104880D01*
X221133333Y-112081071D01*
X221085714Y-112009642D01*
X221061904Y-111914404D01*
X221061904Y-111723928D01*
X221085714Y-111676309D01*
X221109523Y-111652500D01*
X221157142Y-111628690D01*
X221252380Y-111628690D01*
X221300000Y-111652500D01*
X221323809Y-111676309D01*
X221347619Y-111723928D01*
X221347619Y-111842976D01*
X221323809Y-111890595D01*
X221300000Y-111914404D01*
X221252380Y-111938214D01*
X221157142Y-111938214D01*
X221109523Y-111914404D01*
X221085714Y-111890595D01*
X221061904Y-111842976D01*
X220919047Y-111628690D02*
X220752380Y-112128690D01*
X220585714Y-111628690D01*
X227133333Y-84378571D02*
X227157142Y-84402380D01*
X227228571Y-84426190D01*
X227276190Y-84426190D01*
X227347619Y-84402380D01*
X227395238Y-84354761D01*
X227419047Y-84307142D01*
X227442857Y-84211904D01*
X227442857Y-84140476D01*
X227419047Y-84045238D01*
X227395238Y-83997619D01*
X227347619Y-83950000D01*
X227276190Y-83926190D01*
X227228571Y-83926190D01*
X227157142Y-83950000D01*
X227133333Y-83973809D01*
X226919047Y-84426190D02*
X226919047Y-83926190D01*
X226728571Y-83926190D01*
X226680952Y-83950000D01*
X226657142Y-83973809D01*
X226633333Y-84021428D01*
X226633333Y-84092857D01*
X226657142Y-84140476D01*
X226680952Y-84164285D01*
X226728571Y-84188095D01*
X226919047Y-84188095D01*
X226204761Y-84092857D02*
X226204761Y-84426190D01*
X226323809Y-83902380D02*
X226442857Y-84259523D01*
X226133333Y-84259523D01*
%TO.C,JP4*%
X219621428Y-98826190D02*
X219788095Y-98588095D01*
X219907142Y-98826190D02*
X219907142Y-98326190D01*
X219716666Y-98326190D01*
X219669047Y-98350000D01*
X219645238Y-98373809D01*
X219621428Y-98421428D01*
X219621428Y-98492857D01*
X219645238Y-98540476D01*
X219669047Y-98564285D01*
X219716666Y-98588095D01*
X219907142Y-98588095D01*
X219407142Y-98564285D02*
X219240476Y-98564285D01*
X219169047Y-98826190D02*
X219407142Y-98826190D01*
X219407142Y-98326190D01*
X219169047Y-98326190D01*
X218954761Y-98826190D02*
X218954761Y-98326190D01*
X218835714Y-98326190D01*
X218764285Y-98350000D01*
X218716666Y-98397619D01*
X218692857Y-98445238D01*
X218669047Y-98540476D01*
X218669047Y-98611904D01*
X218692857Y-98707142D01*
X218716666Y-98754761D01*
X218764285Y-98802380D01*
X218835714Y-98826190D01*
X218954761Y-98826190D01*
X219716666Y-101326190D02*
X219716666Y-101683333D01*
X219740476Y-101754761D01*
X219788095Y-101802380D01*
X219859523Y-101826190D01*
X219907142Y-101826190D01*
X219478571Y-101826190D02*
X219478571Y-101326190D01*
X219288095Y-101326190D01*
X219240476Y-101350000D01*
X219216666Y-101373809D01*
X219192857Y-101421428D01*
X219192857Y-101492857D01*
X219216666Y-101540476D01*
X219240476Y-101564285D01*
X219288095Y-101588095D01*
X219478571Y-101588095D01*
X218764285Y-101492857D02*
X218764285Y-101826190D01*
X218883333Y-101302380D02*
X219002380Y-101659523D01*
X218692857Y-101659523D01*
%TO.C,JP11*%
X198954761Y-108426190D02*
X198954761Y-108783333D01*
X198978571Y-108854761D01*
X199026190Y-108902380D01*
X199097619Y-108926190D01*
X199145238Y-108926190D01*
X198716666Y-108926190D02*
X198716666Y-108426190D01*
X198526190Y-108426190D01*
X198478571Y-108450000D01*
X198454761Y-108473809D01*
X198430952Y-108521428D01*
X198430952Y-108592857D01*
X198454761Y-108640476D01*
X198478571Y-108664285D01*
X198526190Y-108688095D01*
X198716666Y-108688095D01*
X197954761Y-108926190D02*
X198240476Y-108926190D01*
X198097619Y-108926190D02*
X198097619Y-108426190D01*
X198145238Y-108497619D01*
X198192857Y-108545238D01*
X198240476Y-108569047D01*
X197478571Y-108926190D02*
X197764285Y-108926190D01*
X197621428Y-108926190D02*
X197621428Y-108426190D01*
X197669047Y-108497619D01*
X197716666Y-108545238D01*
X197764285Y-108569047D01*
X199026190Y-105426190D02*
X198907142Y-105926190D01*
X198811904Y-105569047D01*
X198716666Y-105926190D01*
X198597619Y-105426190D01*
X198050000Y-105402380D02*
X198478571Y-106045238D01*
X197597619Y-105926190D02*
X197764285Y-105688095D01*
X197883333Y-105926190D02*
X197883333Y-105426190D01*
X197692857Y-105426190D01*
X197645238Y-105450000D01*
X197621428Y-105473809D01*
X197597619Y-105521428D01*
X197597619Y-105592857D01*
X197621428Y-105640476D01*
X197645238Y-105664285D01*
X197692857Y-105688095D01*
X197883333Y-105688095D01*
%TO.C,JP5*%
X215928571Y-98464285D02*
X215857142Y-98488095D01*
X215833333Y-98511904D01*
X215809523Y-98559523D01*
X215809523Y-98630952D01*
X215833333Y-98678571D01*
X215857142Y-98702380D01*
X215904761Y-98726190D01*
X216095238Y-98726190D01*
X216095238Y-98226190D01*
X215928571Y-98226190D01*
X215880952Y-98250000D01*
X215857142Y-98273809D01*
X215833333Y-98321428D01*
X215833333Y-98369047D01*
X215857142Y-98416666D01*
X215880952Y-98440476D01*
X215928571Y-98464285D01*
X216095238Y-98464285D01*
X215357142Y-98726190D02*
X215595238Y-98726190D01*
X215595238Y-98226190D01*
X215190476Y-98226190D02*
X215190476Y-98630952D01*
X215166666Y-98678571D01*
X215142857Y-98702380D01*
X215095238Y-98726190D01*
X215000000Y-98726190D01*
X214952380Y-98702380D01*
X214928571Y-98678571D01*
X214904761Y-98630952D01*
X214904761Y-98226190D01*
X215916666Y-101226190D02*
X215916666Y-101583333D01*
X215940476Y-101654761D01*
X215988095Y-101702380D01*
X216059523Y-101726190D01*
X216107142Y-101726190D01*
X215678571Y-101726190D02*
X215678571Y-101226190D01*
X215488095Y-101226190D01*
X215440476Y-101250000D01*
X215416666Y-101273809D01*
X215392857Y-101321428D01*
X215392857Y-101392857D01*
X215416666Y-101440476D01*
X215440476Y-101464285D01*
X215488095Y-101488095D01*
X215678571Y-101488095D01*
X214940476Y-101226190D02*
X215178571Y-101226190D01*
X215202380Y-101464285D01*
X215178571Y-101440476D01*
X215130952Y-101416666D01*
X215011904Y-101416666D01*
X214964285Y-101440476D01*
X214940476Y-101464285D01*
X214916666Y-101511904D01*
X214916666Y-101630952D01*
X214940476Y-101678571D01*
X214964285Y-101702380D01*
X215011904Y-101726190D01*
X215130952Y-101726190D01*
X215178571Y-101702380D01*
X215202380Y-101678571D01*
%TO.C,JP1*%
X236833333Y-103950000D02*
X236880952Y-103926190D01*
X236952380Y-103926190D01*
X237023809Y-103950000D01*
X237071428Y-103997619D01*
X237095238Y-104045238D01*
X237119047Y-104140476D01*
X237119047Y-104211904D01*
X237095238Y-104307142D01*
X237071428Y-104354761D01*
X237023809Y-104402380D01*
X236952380Y-104426190D01*
X236904761Y-104426190D01*
X236833333Y-104402380D01*
X236809523Y-104378571D01*
X236809523Y-104211904D01*
X236904761Y-104211904D01*
X236309523Y-104426190D02*
X236476190Y-104188095D01*
X236595238Y-104426190D02*
X236595238Y-103926190D01*
X236404761Y-103926190D01*
X236357142Y-103950000D01*
X236333333Y-103973809D01*
X236309523Y-104021428D01*
X236309523Y-104092857D01*
X236333333Y-104140476D01*
X236357142Y-104164285D01*
X236404761Y-104188095D01*
X236595238Y-104188095D01*
X236000000Y-104188095D02*
X236000000Y-104426190D01*
X236166666Y-103926190D02*
X236000000Y-104188095D01*
X235833333Y-103926190D01*
X236916666Y-106926190D02*
X236916666Y-107283333D01*
X236940476Y-107354761D01*
X236988095Y-107402380D01*
X237059523Y-107426190D01*
X237107142Y-107426190D01*
X236678571Y-107426190D02*
X236678571Y-106926190D01*
X236488095Y-106926190D01*
X236440476Y-106950000D01*
X236416666Y-106973809D01*
X236392857Y-107021428D01*
X236392857Y-107092857D01*
X236416666Y-107140476D01*
X236440476Y-107164285D01*
X236488095Y-107188095D01*
X236678571Y-107188095D01*
X235916666Y-107426190D02*
X236202380Y-107426190D01*
X236059523Y-107426190D02*
X236059523Y-106926190D01*
X236107142Y-106997619D01*
X236154761Y-107045238D01*
X236202380Y-107069047D01*
%TO.C,JP9*%
X201816666Y-105826190D02*
X201816666Y-106183333D01*
X201840476Y-106254761D01*
X201888095Y-106302380D01*
X201959523Y-106326190D01*
X202007142Y-106326190D01*
X201578571Y-106326190D02*
X201578571Y-105826190D01*
X201388095Y-105826190D01*
X201340476Y-105850000D01*
X201316666Y-105873809D01*
X201292857Y-105921428D01*
X201292857Y-105992857D01*
X201316666Y-106040476D01*
X201340476Y-106064285D01*
X201388095Y-106088095D01*
X201578571Y-106088095D01*
X201054761Y-106326190D02*
X200959523Y-106326190D01*
X200911904Y-106302380D01*
X200888095Y-106278571D01*
X200840476Y-106207142D01*
X200816666Y-106111904D01*
X200816666Y-105921428D01*
X200840476Y-105873809D01*
X200864285Y-105850000D01*
X200911904Y-105826190D01*
X201007142Y-105826190D01*
X201054761Y-105850000D01*
X201078571Y-105873809D01*
X201102380Y-105921428D01*
X201102380Y-106040476D01*
X201078571Y-106088095D01*
X201054761Y-106111904D01*
X201007142Y-106135714D01*
X200911904Y-106135714D01*
X200864285Y-106111904D01*
X200840476Y-106088095D01*
X200816666Y-106040476D01*
X203221428Y-104826190D02*
X203388095Y-104588095D01*
X203507142Y-104826190D02*
X203507142Y-104326190D01*
X203316666Y-104326190D01*
X203269047Y-104350000D01*
X203245238Y-104373809D01*
X203221428Y-104421428D01*
X203221428Y-104492857D01*
X203245238Y-104540476D01*
X203269047Y-104564285D01*
X203316666Y-104588095D01*
X203507142Y-104588095D01*
X203007142Y-104564285D02*
X202840476Y-104564285D01*
X202769047Y-104826190D02*
X203007142Y-104826190D01*
X203007142Y-104326190D01*
X202769047Y-104326190D01*
X202554761Y-104826190D02*
X202554761Y-104326190D01*
X202435714Y-104326190D01*
X202364285Y-104350000D01*
X202316666Y-104397619D01*
X202292857Y-104445238D01*
X202269047Y-104540476D01*
X202269047Y-104611904D01*
X202292857Y-104707142D01*
X202316666Y-104754761D01*
X202364285Y-104802380D01*
X202435714Y-104826190D01*
X202554761Y-104826190D01*
%TO.C,JP13*%
X186454761Y-107626190D02*
X186454761Y-107983333D01*
X186478571Y-108054761D01*
X186526190Y-108102380D01*
X186597619Y-108126190D01*
X186645238Y-108126190D01*
X186216666Y-108126190D02*
X186216666Y-107626190D01*
X186026190Y-107626190D01*
X185978571Y-107650000D01*
X185954761Y-107673809D01*
X185930952Y-107721428D01*
X185930952Y-107792857D01*
X185954761Y-107840476D01*
X185978571Y-107864285D01*
X186026190Y-107888095D01*
X186216666Y-107888095D01*
X185454761Y-108126190D02*
X185740476Y-108126190D01*
X185597619Y-108126190D02*
X185597619Y-107626190D01*
X185645238Y-107697619D01*
X185692857Y-107745238D01*
X185740476Y-107769047D01*
X185288095Y-107626190D02*
X184978571Y-107626190D01*
X185145238Y-107816666D01*
X185073809Y-107816666D01*
X185026190Y-107840476D01*
X185002380Y-107864285D01*
X184978571Y-107911904D01*
X184978571Y-108030952D01*
X185002380Y-108078571D01*
X185026190Y-108102380D01*
X185073809Y-108126190D01*
X185216666Y-108126190D01*
X185264285Y-108102380D01*
X185288095Y-108078571D01*
X186180952Y-104650000D02*
X186228571Y-104626190D01*
X186300000Y-104626190D01*
X186371428Y-104650000D01*
X186419047Y-104697619D01*
X186442857Y-104745238D01*
X186466666Y-104840476D01*
X186466666Y-104911904D01*
X186442857Y-105007142D01*
X186419047Y-105054761D01*
X186371428Y-105102380D01*
X186300000Y-105126190D01*
X186252380Y-105126190D01*
X186180952Y-105102380D01*
X186157142Y-105078571D01*
X186157142Y-104911904D01*
X186252380Y-104911904D01*
X185657142Y-105126190D02*
X185823809Y-104888095D01*
X185942857Y-105126190D02*
X185942857Y-104626190D01*
X185752380Y-104626190D01*
X185704761Y-104650000D01*
X185680952Y-104673809D01*
X185657142Y-104721428D01*
X185657142Y-104792857D01*
X185680952Y-104840476D01*
X185704761Y-104864285D01*
X185752380Y-104888095D01*
X185942857Y-104888095D01*
X185442857Y-105126190D02*
X185442857Y-104626190D01*
X185157142Y-105126190D01*
X185157142Y-104626190D01*
%TO.C,U101*%
X225757142Y-82426190D02*
X225757142Y-82830952D01*
X225733333Y-82878571D01*
X225709523Y-82902380D01*
X225661904Y-82926190D01*
X225566666Y-82926190D01*
X225519047Y-82902380D01*
X225495238Y-82878571D01*
X225471428Y-82830952D01*
X225471428Y-82426190D01*
X224971428Y-82926190D02*
X225257142Y-82926190D01*
X225114285Y-82926190D02*
X225114285Y-82426190D01*
X225161904Y-82497619D01*
X225209523Y-82545238D01*
X225257142Y-82569047D01*
X224661904Y-82426190D02*
X224614285Y-82426190D01*
X224566666Y-82450000D01*
X224542857Y-82473809D01*
X224519047Y-82521428D01*
X224495238Y-82616666D01*
X224495238Y-82735714D01*
X224519047Y-82830952D01*
X224542857Y-82878571D01*
X224566666Y-82902380D01*
X224614285Y-82926190D01*
X224661904Y-82926190D01*
X224709523Y-82902380D01*
X224733333Y-82878571D01*
X224757142Y-82830952D01*
X224780952Y-82735714D01*
X224780952Y-82616666D01*
X224757142Y-82521428D01*
X224733333Y-82473809D01*
X224709523Y-82450000D01*
X224661904Y-82426190D01*
X224019047Y-82926190D02*
X224304761Y-82926190D01*
X224161904Y-82926190D02*
X224161904Y-82426190D01*
X224209523Y-82497619D01*
X224257142Y-82545238D01*
X224304761Y-82569047D01*
X226059523Y-83226190D02*
X225773809Y-83226190D01*
X225916666Y-83726190D02*
X225916666Y-83226190D01*
X225369047Y-83726190D02*
X225607142Y-83726190D01*
X225607142Y-83226190D01*
X225107142Y-83226190D02*
X225059523Y-83226190D01*
X225011904Y-83250000D01*
X224988095Y-83273809D01*
X224964285Y-83321428D01*
X224940476Y-83416666D01*
X224940476Y-83535714D01*
X224964285Y-83630952D01*
X224988095Y-83678571D01*
X225011904Y-83702380D01*
X225059523Y-83726190D01*
X225107142Y-83726190D01*
X225154761Y-83702380D01*
X225178571Y-83678571D01*
X225202380Y-83630952D01*
X225226190Y-83535714D01*
X225226190Y-83416666D01*
X225202380Y-83321428D01*
X225178571Y-83273809D01*
X225154761Y-83250000D01*
X225107142Y-83226190D01*
X224750000Y-83273809D02*
X224726190Y-83250000D01*
X224678571Y-83226190D01*
X224559523Y-83226190D01*
X224511904Y-83250000D01*
X224488095Y-83273809D01*
X224464285Y-83321428D01*
X224464285Y-83369047D01*
X224488095Y-83440476D01*
X224773809Y-83726190D01*
X224464285Y-83726190D01*
X224273809Y-83273809D02*
X224250000Y-83250000D01*
X224202380Y-83226190D01*
X224083333Y-83226190D01*
X224035714Y-83250000D01*
X224011904Y-83273809D01*
X223988095Y-83321428D01*
X223988095Y-83369047D01*
X224011904Y-83440476D01*
X224297619Y-83726190D01*
X223988095Y-83726190D01*
%TO.C,JP15*%
X205481428Y-56426190D02*
X205648095Y-56188095D01*
X205767142Y-56426190D02*
X205767142Y-55926190D01*
X205576666Y-55926190D01*
X205529047Y-55950000D01*
X205505238Y-55973809D01*
X205481428Y-56021428D01*
X205481428Y-56092857D01*
X205505238Y-56140476D01*
X205529047Y-56164285D01*
X205576666Y-56188095D01*
X205767142Y-56188095D01*
X205267142Y-56164285D02*
X205100476Y-56164285D01*
X205029047Y-56426190D02*
X205267142Y-56426190D01*
X205267142Y-55926190D01*
X205029047Y-55926190D01*
X204814761Y-56426190D02*
X204814761Y-55926190D01*
X204695714Y-55926190D01*
X204624285Y-55950000D01*
X204576666Y-55997619D01*
X204552857Y-56045238D01*
X204529047Y-56140476D01*
X204529047Y-56211904D01*
X204552857Y-56307142D01*
X204576666Y-56354761D01*
X204624285Y-56402380D01*
X204695714Y-56426190D01*
X204814761Y-56426190D01*
X205954761Y-58926190D02*
X205954761Y-59283333D01*
X205978571Y-59354761D01*
X206026190Y-59402380D01*
X206097619Y-59426190D01*
X206145238Y-59426190D01*
X205716666Y-59426190D02*
X205716666Y-58926190D01*
X205526190Y-58926190D01*
X205478571Y-58950000D01*
X205454761Y-58973809D01*
X205430952Y-59021428D01*
X205430952Y-59092857D01*
X205454761Y-59140476D01*
X205478571Y-59164285D01*
X205526190Y-59188095D01*
X205716666Y-59188095D01*
X204954761Y-59426190D02*
X205240476Y-59426190D01*
X205097619Y-59426190D02*
X205097619Y-58926190D01*
X205145238Y-58997619D01*
X205192857Y-59045238D01*
X205240476Y-59069047D01*
X204502380Y-58926190D02*
X204740476Y-58926190D01*
X204764285Y-59164285D01*
X204740476Y-59140476D01*
X204692857Y-59116666D01*
X204573809Y-59116666D01*
X204526190Y-59140476D01*
X204502380Y-59164285D01*
X204478571Y-59211904D01*
X204478571Y-59330952D01*
X204502380Y-59378571D01*
X204526190Y-59402380D01*
X204573809Y-59426190D01*
X204692857Y-59426190D01*
X204740476Y-59402380D01*
X204764285Y-59378571D01*
%TO.C,JP7*%
X201976190Y-99264285D02*
X201904761Y-99288095D01*
X201880952Y-99311904D01*
X201857142Y-99359523D01*
X201857142Y-99430952D01*
X201880952Y-99478571D01*
X201904761Y-99502380D01*
X201952380Y-99526190D01*
X202142857Y-99526190D01*
X202142857Y-99026190D01*
X201976190Y-99026190D01*
X201928571Y-99050000D01*
X201904761Y-99073809D01*
X201880952Y-99121428D01*
X201880952Y-99169047D01*
X201904761Y-99216666D01*
X201928571Y-99240476D01*
X201976190Y-99264285D01*
X202142857Y-99264285D01*
X201357142Y-99526190D02*
X201523809Y-99288095D01*
X201642857Y-99526190D02*
X201642857Y-99026190D01*
X201452380Y-99026190D01*
X201404761Y-99050000D01*
X201380952Y-99073809D01*
X201357142Y-99121428D01*
X201357142Y-99192857D01*
X201380952Y-99240476D01*
X201404761Y-99264285D01*
X201452380Y-99288095D01*
X201642857Y-99288095D01*
X201142857Y-99526190D02*
X201142857Y-99026190D01*
X200857142Y-99526190D01*
X200857142Y-99026190D01*
X203916666Y-100526190D02*
X203916666Y-100883333D01*
X203940476Y-100954761D01*
X203988095Y-101002380D01*
X204059523Y-101026190D01*
X204107142Y-101026190D01*
X203678571Y-101026190D02*
X203678571Y-100526190D01*
X203488095Y-100526190D01*
X203440476Y-100550000D01*
X203416666Y-100573809D01*
X203392857Y-100621428D01*
X203392857Y-100692857D01*
X203416666Y-100740476D01*
X203440476Y-100764285D01*
X203488095Y-100788095D01*
X203678571Y-100788095D01*
X203226190Y-100526190D02*
X202892857Y-100526190D01*
X203107142Y-101026190D01*
%TO.C,JP2*%
X231828571Y-104288095D02*
X231828571Y-104526190D01*
X231995238Y-104026190D02*
X231828571Y-104288095D01*
X231661904Y-104026190D01*
X231495238Y-104264285D02*
X231328571Y-104264285D01*
X231257142Y-104526190D02*
X231495238Y-104526190D01*
X231495238Y-104026190D01*
X231257142Y-104026190D01*
X230804761Y-104526190D02*
X231042857Y-104526190D01*
X231042857Y-104026190D01*
X231816666Y-107026190D02*
X231816666Y-107383333D01*
X231840476Y-107454761D01*
X231888095Y-107502380D01*
X231959523Y-107526190D01*
X232007142Y-107526190D01*
X231578571Y-107526190D02*
X231578571Y-107026190D01*
X231388095Y-107026190D01*
X231340476Y-107050000D01*
X231316666Y-107073809D01*
X231292857Y-107121428D01*
X231292857Y-107192857D01*
X231316666Y-107240476D01*
X231340476Y-107264285D01*
X231388095Y-107288095D01*
X231578571Y-107288095D01*
X231102380Y-107073809D02*
X231078571Y-107050000D01*
X231030952Y-107026190D01*
X230911904Y-107026190D01*
X230864285Y-107050000D01*
X230840476Y-107073809D01*
X230816666Y-107121428D01*
X230816666Y-107169047D01*
X230840476Y-107240476D01*
X231126190Y-107526190D01*
X230816666Y-107526190D01*
%TO.C,U103*%
X192157142Y-69026190D02*
X192157142Y-69430952D01*
X192133333Y-69478571D01*
X192109523Y-69502380D01*
X192061904Y-69526190D01*
X191966666Y-69526190D01*
X191919047Y-69502380D01*
X191895238Y-69478571D01*
X191871428Y-69430952D01*
X191871428Y-69026190D01*
X191371428Y-69526190D02*
X191657142Y-69526190D01*
X191514285Y-69526190D02*
X191514285Y-69026190D01*
X191561904Y-69097619D01*
X191609523Y-69145238D01*
X191657142Y-69169047D01*
X191061904Y-69026190D02*
X191014285Y-69026190D01*
X190966666Y-69050000D01*
X190942857Y-69073809D01*
X190919047Y-69121428D01*
X190895238Y-69216666D01*
X190895238Y-69335714D01*
X190919047Y-69430952D01*
X190942857Y-69478571D01*
X190966666Y-69502380D01*
X191014285Y-69526190D01*
X191061904Y-69526190D01*
X191109523Y-69502380D01*
X191133333Y-69478571D01*
X191157142Y-69430952D01*
X191180952Y-69335714D01*
X191180952Y-69216666D01*
X191157142Y-69121428D01*
X191133333Y-69073809D01*
X191109523Y-69050000D01*
X191061904Y-69026190D01*
X190728571Y-69026190D02*
X190419047Y-69026190D01*
X190585714Y-69216666D01*
X190514285Y-69216666D01*
X190466666Y-69240476D01*
X190442857Y-69264285D01*
X190419047Y-69311904D01*
X190419047Y-69430952D01*
X190442857Y-69478571D01*
X190466666Y-69502380D01*
X190514285Y-69526190D01*
X190657142Y-69526190D01*
X190704761Y-69502380D01*
X190728571Y-69478571D01*
X192459523Y-69726190D02*
X192173809Y-69726190D01*
X192316666Y-70226190D02*
X192316666Y-69726190D01*
X191769047Y-70226190D02*
X192007142Y-70226190D01*
X192007142Y-69726190D01*
X191507142Y-69726190D02*
X191459523Y-69726190D01*
X191411904Y-69750000D01*
X191388095Y-69773809D01*
X191364285Y-69821428D01*
X191340476Y-69916666D01*
X191340476Y-70035714D01*
X191364285Y-70130952D01*
X191388095Y-70178571D01*
X191411904Y-70202380D01*
X191459523Y-70226190D01*
X191507142Y-70226190D01*
X191554761Y-70202380D01*
X191578571Y-70178571D01*
X191602380Y-70130952D01*
X191626190Y-70035714D01*
X191626190Y-69916666D01*
X191602380Y-69821428D01*
X191578571Y-69773809D01*
X191554761Y-69750000D01*
X191507142Y-69726190D01*
X191150000Y-69773809D02*
X191126190Y-69750000D01*
X191078571Y-69726190D01*
X190959523Y-69726190D01*
X190911904Y-69750000D01*
X190888095Y-69773809D01*
X190864285Y-69821428D01*
X190864285Y-69869047D01*
X190888095Y-69940476D01*
X191173809Y-70226190D01*
X190864285Y-70226190D01*
X190673809Y-69773809D02*
X190650000Y-69750000D01*
X190602380Y-69726190D01*
X190483333Y-69726190D01*
X190435714Y-69750000D01*
X190411904Y-69773809D01*
X190388095Y-69821428D01*
X190388095Y-69869047D01*
X190411904Y-69940476D01*
X190697619Y-70226190D01*
X190388095Y-70226190D01*
%TO.C,U105*%
X210880952Y-58426190D02*
X210880952Y-57926190D01*
X210714285Y-58283333D01*
X210547619Y-57926190D01*
X210547619Y-58426190D01*
X210309523Y-58426190D02*
X210309523Y-57926190D01*
X210023809Y-58426190D01*
X210023809Y-57926190D01*
X209833333Y-57926190D02*
X209523809Y-57926190D01*
X209690476Y-58116666D01*
X209619047Y-58116666D01*
X209571428Y-58140476D01*
X209547619Y-58164285D01*
X209523809Y-58211904D01*
X209523809Y-58330952D01*
X209547619Y-58378571D01*
X209571428Y-58402380D01*
X209619047Y-58426190D01*
X209761904Y-58426190D01*
X209809523Y-58402380D01*
X209833333Y-58378571D01*
X209047619Y-58426190D02*
X209333333Y-58426190D01*
X209190476Y-58426190D02*
X209190476Y-57926190D01*
X209238095Y-57997619D01*
X209285714Y-58045238D01*
X209333333Y-58069047D01*
X208738095Y-57926190D02*
X208690476Y-57926190D01*
X208642857Y-57950000D01*
X208619047Y-57973809D01*
X208595238Y-58021428D01*
X208571428Y-58116666D01*
X208571428Y-58235714D01*
X208595238Y-58330952D01*
X208619047Y-58378571D01*
X208642857Y-58402380D01*
X208690476Y-58426190D01*
X208738095Y-58426190D01*
X208785714Y-58402380D01*
X208809523Y-58378571D01*
X208833333Y-58330952D01*
X208857142Y-58235714D01*
X208857142Y-58116666D01*
X208833333Y-58021428D01*
X208809523Y-57973809D01*
X208785714Y-57950000D01*
X208738095Y-57926190D01*
X208380952Y-57973809D02*
X208357142Y-57950000D01*
X208309523Y-57926190D01*
X208190476Y-57926190D01*
X208142857Y-57950000D01*
X208119047Y-57973809D01*
X208095238Y-58021428D01*
X208095238Y-58069047D01*
X208119047Y-58140476D01*
X208404761Y-58426190D01*
X208095238Y-58426190D01*
X209757142Y-57226190D02*
X209757142Y-57630952D01*
X209733333Y-57678571D01*
X209709523Y-57702380D01*
X209661904Y-57726190D01*
X209566666Y-57726190D01*
X209519047Y-57702380D01*
X209495238Y-57678571D01*
X209471428Y-57630952D01*
X209471428Y-57226190D01*
X208971428Y-57726190D02*
X209257142Y-57726190D01*
X209114285Y-57726190D02*
X209114285Y-57226190D01*
X209161904Y-57297619D01*
X209209523Y-57345238D01*
X209257142Y-57369047D01*
X208661904Y-57226190D02*
X208614285Y-57226190D01*
X208566666Y-57250000D01*
X208542857Y-57273809D01*
X208519047Y-57321428D01*
X208495238Y-57416666D01*
X208495238Y-57535714D01*
X208519047Y-57630952D01*
X208542857Y-57678571D01*
X208566666Y-57702380D01*
X208614285Y-57726190D01*
X208661904Y-57726190D01*
X208709523Y-57702380D01*
X208733333Y-57678571D01*
X208757142Y-57630952D01*
X208780952Y-57535714D01*
X208780952Y-57416666D01*
X208757142Y-57321428D01*
X208733333Y-57273809D01*
X208709523Y-57250000D01*
X208661904Y-57226190D01*
X208042857Y-57226190D02*
X208280952Y-57226190D01*
X208304761Y-57464285D01*
X208280952Y-57440476D01*
X208233333Y-57416666D01*
X208114285Y-57416666D01*
X208066666Y-57440476D01*
X208042857Y-57464285D01*
X208019047Y-57511904D01*
X208019047Y-57630952D01*
X208042857Y-57678571D01*
X208066666Y-57702380D01*
X208114285Y-57726190D01*
X208233333Y-57726190D01*
X208280952Y-57702380D01*
X208304761Y-57678571D01*
%TO.C,U104*%
X227880952Y-57426190D02*
X227880952Y-56926190D01*
X227714285Y-57283333D01*
X227547619Y-56926190D01*
X227547619Y-57426190D01*
X227309523Y-57426190D02*
X227309523Y-56926190D01*
X227023809Y-57426190D01*
X227023809Y-56926190D01*
X226833333Y-56926190D02*
X226523809Y-56926190D01*
X226690476Y-57116666D01*
X226619047Y-57116666D01*
X226571428Y-57140476D01*
X226547619Y-57164285D01*
X226523809Y-57211904D01*
X226523809Y-57330952D01*
X226547619Y-57378571D01*
X226571428Y-57402380D01*
X226619047Y-57426190D01*
X226761904Y-57426190D01*
X226809523Y-57402380D01*
X226833333Y-57378571D01*
X226333333Y-56973809D02*
X226309523Y-56950000D01*
X226261904Y-56926190D01*
X226142857Y-56926190D01*
X226095238Y-56950000D01*
X226071428Y-56973809D01*
X226047619Y-57021428D01*
X226047619Y-57069047D01*
X226071428Y-57140476D01*
X226357142Y-57426190D01*
X226047619Y-57426190D01*
X225738095Y-56926190D02*
X225690476Y-56926190D01*
X225642857Y-56950000D01*
X225619047Y-56973809D01*
X225595238Y-57021428D01*
X225571428Y-57116666D01*
X225571428Y-57235714D01*
X225595238Y-57330952D01*
X225619047Y-57378571D01*
X225642857Y-57402380D01*
X225690476Y-57426190D01*
X225738095Y-57426190D01*
X225785714Y-57402380D01*
X225809523Y-57378571D01*
X225833333Y-57330952D01*
X225857142Y-57235714D01*
X225857142Y-57116666D01*
X225833333Y-57021428D01*
X225809523Y-56973809D01*
X225785714Y-56950000D01*
X225738095Y-56926190D01*
X225404761Y-56926190D02*
X225071428Y-56926190D01*
X225285714Y-57426190D01*
X227857142Y-55926190D02*
X227857142Y-56330952D01*
X227833333Y-56378571D01*
X227809523Y-56402380D01*
X227761904Y-56426190D01*
X227666666Y-56426190D01*
X227619047Y-56402380D01*
X227595238Y-56378571D01*
X227571428Y-56330952D01*
X227571428Y-55926190D01*
X227071428Y-56426190D02*
X227357142Y-56426190D01*
X227214285Y-56426190D02*
X227214285Y-55926190D01*
X227261904Y-55997619D01*
X227309523Y-56045238D01*
X227357142Y-56069047D01*
X226761904Y-55926190D02*
X226714285Y-55926190D01*
X226666666Y-55950000D01*
X226642857Y-55973809D01*
X226619047Y-56021428D01*
X226595238Y-56116666D01*
X226595238Y-56235714D01*
X226619047Y-56330952D01*
X226642857Y-56378571D01*
X226666666Y-56402380D01*
X226714285Y-56426190D01*
X226761904Y-56426190D01*
X226809523Y-56402380D01*
X226833333Y-56378571D01*
X226857142Y-56330952D01*
X226880952Y-56235714D01*
X226880952Y-56116666D01*
X226857142Y-56021428D01*
X226833333Y-55973809D01*
X226809523Y-55950000D01*
X226761904Y-55926190D01*
X226166666Y-56092857D02*
X226166666Y-56426190D01*
X226285714Y-55902380D02*
X226404761Y-56259523D01*
X226095238Y-56259523D01*
%TO.C,JP12*%
X189654761Y-112226190D02*
X189654761Y-112583333D01*
X189678571Y-112654761D01*
X189726190Y-112702380D01*
X189797619Y-112726190D01*
X189845238Y-112726190D01*
X189416666Y-112726190D02*
X189416666Y-112226190D01*
X189226190Y-112226190D01*
X189178571Y-112250000D01*
X189154761Y-112273809D01*
X189130952Y-112321428D01*
X189130952Y-112392857D01*
X189154761Y-112440476D01*
X189178571Y-112464285D01*
X189226190Y-112488095D01*
X189416666Y-112488095D01*
X188654761Y-112726190D02*
X188940476Y-112726190D01*
X188797619Y-112726190D02*
X188797619Y-112226190D01*
X188845238Y-112297619D01*
X188892857Y-112345238D01*
X188940476Y-112369047D01*
X188464285Y-112273809D02*
X188440476Y-112250000D01*
X188392857Y-112226190D01*
X188273809Y-112226190D01*
X188226190Y-112250000D01*
X188202380Y-112273809D01*
X188178571Y-112321428D01*
X188178571Y-112369047D01*
X188202380Y-112440476D01*
X188488095Y-112726190D01*
X188178571Y-112726190D01*
X189761904Y-109726190D02*
X189761904Y-109226190D01*
X189571428Y-109226190D01*
X189523809Y-109250000D01*
X189500000Y-109273809D01*
X189476190Y-109321428D01*
X189476190Y-109392857D01*
X189500000Y-109440476D01*
X189523809Y-109464285D01*
X189571428Y-109488095D01*
X189761904Y-109488095D01*
X189261904Y-109726190D02*
X189261904Y-109226190D01*
X189023809Y-109726190D02*
X189023809Y-109226190D01*
X188738095Y-109726190D01*
X188738095Y-109226190D01*
X188500000Y-109726190D02*
X188500000Y-109226190D01*
X188214285Y-109726190D02*
X188428571Y-109440476D01*
X188214285Y-109226190D02*
X188500000Y-109511904D01*
%TO.C,JP16*%
X191354761Y-60526190D02*
X191354761Y-60883333D01*
X191378571Y-60954761D01*
X191426190Y-61002380D01*
X191497619Y-61026190D01*
X191545238Y-61026190D01*
X191116666Y-61026190D02*
X191116666Y-60526190D01*
X190926190Y-60526190D01*
X190878571Y-60550000D01*
X190854761Y-60573809D01*
X190830952Y-60621428D01*
X190830952Y-60692857D01*
X190854761Y-60740476D01*
X190878571Y-60764285D01*
X190926190Y-60788095D01*
X191116666Y-60788095D01*
X190354761Y-61026190D02*
X190640476Y-61026190D01*
X190497619Y-61026190D02*
X190497619Y-60526190D01*
X190545238Y-60597619D01*
X190592857Y-60645238D01*
X190640476Y-60669047D01*
X189926190Y-60526190D02*
X190021428Y-60526190D01*
X190069047Y-60550000D01*
X190092857Y-60573809D01*
X190140476Y-60645238D01*
X190164285Y-60740476D01*
X190164285Y-60930952D01*
X190140476Y-60978571D01*
X190116666Y-61002380D01*
X190069047Y-61026190D01*
X189973809Y-61026190D01*
X189926190Y-61002380D01*
X189902380Y-60978571D01*
X189878571Y-60930952D01*
X189878571Y-60811904D01*
X189902380Y-60764285D01*
X189926190Y-60740476D01*
X189973809Y-60716666D01*
X190069047Y-60716666D01*
X190116666Y-60740476D01*
X190140476Y-60764285D01*
X190164285Y-60811904D01*
X191509523Y-57788095D02*
X191509523Y-58026190D01*
X191676190Y-57526190D02*
X191509523Y-57788095D01*
X191342857Y-57526190D01*
X191176190Y-57835714D02*
X190795238Y-57835714D01*
X190295238Y-57550000D02*
X190342857Y-57526190D01*
X190414285Y-57526190D01*
X190485714Y-57550000D01*
X190533333Y-57597619D01*
X190557142Y-57645238D01*
X190580952Y-57740476D01*
X190580952Y-57811904D01*
X190557142Y-57907142D01*
X190533333Y-57954761D01*
X190485714Y-58002380D01*
X190414285Y-58026190D01*
X190366666Y-58026190D01*
X190295238Y-58002380D01*
X190271428Y-57978571D01*
X190271428Y-57811904D01*
X190366666Y-57811904D01*
X189771428Y-58026190D02*
X189938095Y-57788095D01*
X190057142Y-58026190D02*
X190057142Y-57526190D01*
X189866666Y-57526190D01*
X189819047Y-57550000D01*
X189795238Y-57573809D01*
X189771428Y-57621428D01*
X189771428Y-57692857D01*
X189795238Y-57740476D01*
X189819047Y-57764285D01*
X189866666Y-57788095D01*
X190057142Y-57788095D01*
%TO.C,JP3*%
X223816666Y-101426190D02*
X223816666Y-101783333D01*
X223840476Y-101854761D01*
X223888095Y-101902380D01*
X223959523Y-101926190D01*
X224007142Y-101926190D01*
X223578571Y-101926190D02*
X223578571Y-101426190D01*
X223388095Y-101426190D01*
X223340476Y-101450000D01*
X223316666Y-101473809D01*
X223292857Y-101521428D01*
X223292857Y-101592857D01*
X223316666Y-101640476D01*
X223340476Y-101664285D01*
X223388095Y-101688095D01*
X223578571Y-101688095D01*
X223126190Y-101426190D02*
X222816666Y-101426190D01*
X222983333Y-101616666D01*
X222911904Y-101616666D01*
X222864285Y-101640476D01*
X222840476Y-101664285D01*
X222816666Y-101711904D01*
X222816666Y-101830952D01*
X222840476Y-101878571D01*
X222864285Y-101902380D01*
X222911904Y-101926190D01*
X223054761Y-101926190D01*
X223102380Y-101902380D01*
X223126190Y-101878571D01*
X224066666Y-98426190D02*
X223947619Y-98926190D01*
X223852380Y-98569047D01*
X223757142Y-98926190D01*
X223638095Y-98426190D01*
X223447619Y-98926190D02*
X223447619Y-98426190D01*
X223447619Y-98664285D02*
X223161904Y-98664285D01*
X223161904Y-98926190D02*
X223161904Y-98426190D01*
X222995238Y-98426190D02*
X222709523Y-98426190D01*
X222852380Y-98926190D02*
X222852380Y-98426190D01*
%TO.C,U102*%
X224557142Y-66626190D02*
X224557142Y-67030952D01*
X224533333Y-67078571D01*
X224509523Y-67102380D01*
X224461904Y-67126190D01*
X224366666Y-67126190D01*
X224319047Y-67102380D01*
X224295238Y-67078571D01*
X224271428Y-67030952D01*
X224271428Y-66626190D01*
X223771428Y-67126190D02*
X224057142Y-67126190D01*
X223914285Y-67126190D02*
X223914285Y-66626190D01*
X223961904Y-66697619D01*
X224009523Y-66745238D01*
X224057142Y-66769047D01*
X223461904Y-66626190D02*
X223414285Y-66626190D01*
X223366666Y-66650000D01*
X223342857Y-66673809D01*
X223319047Y-66721428D01*
X223295238Y-66816666D01*
X223295238Y-66935714D01*
X223319047Y-67030952D01*
X223342857Y-67078571D01*
X223366666Y-67102380D01*
X223414285Y-67126190D01*
X223461904Y-67126190D01*
X223509523Y-67102380D01*
X223533333Y-67078571D01*
X223557142Y-67030952D01*
X223580952Y-66935714D01*
X223580952Y-66816666D01*
X223557142Y-66721428D01*
X223533333Y-66673809D01*
X223509523Y-66650000D01*
X223461904Y-66626190D01*
X223104761Y-66673809D02*
X223080952Y-66650000D01*
X223033333Y-66626190D01*
X222914285Y-66626190D01*
X222866666Y-66650000D01*
X222842857Y-66673809D01*
X222819047Y-66721428D01*
X222819047Y-66769047D01*
X222842857Y-66840476D01*
X223128571Y-67126190D01*
X222819047Y-67126190D01*
X224559523Y-67326190D02*
X224273809Y-67326190D01*
X224416666Y-67826190D02*
X224416666Y-67326190D01*
X223869047Y-67826190D02*
X224107142Y-67826190D01*
X224107142Y-67326190D01*
X223607142Y-67326190D02*
X223559523Y-67326190D01*
X223511904Y-67350000D01*
X223488095Y-67373809D01*
X223464285Y-67421428D01*
X223440476Y-67516666D01*
X223440476Y-67635714D01*
X223464285Y-67730952D01*
X223488095Y-67778571D01*
X223511904Y-67802380D01*
X223559523Y-67826190D01*
X223607142Y-67826190D01*
X223654761Y-67802380D01*
X223678571Y-67778571D01*
X223702380Y-67730952D01*
X223726190Y-67635714D01*
X223726190Y-67516666D01*
X223702380Y-67421428D01*
X223678571Y-67373809D01*
X223654761Y-67350000D01*
X223607142Y-67326190D01*
X223250000Y-67373809D02*
X223226190Y-67350000D01*
X223178571Y-67326190D01*
X223059523Y-67326190D01*
X223011904Y-67350000D01*
X222988095Y-67373809D01*
X222964285Y-67421428D01*
X222964285Y-67469047D01*
X222988095Y-67540476D01*
X223273809Y-67826190D01*
X222964285Y-67826190D01*
X222773809Y-67373809D02*
X222750000Y-67350000D01*
X222702380Y-67326190D01*
X222583333Y-67326190D01*
X222535714Y-67350000D01*
X222511904Y-67373809D01*
X222488095Y-67421428D01*
X222488095Y-67469047D01*
X222511904Y-67540476D01*
X222797619Y-67826190D01*
X222488095Y-67826190D01*
%TO.C,JP6*%
X206916666Y-101826190D02*
X206916666Y-102183333D01*
X206940476Y-102254761D01*
X206988095Y-102302380D01*
X207059523Y-102326190D01*
X207107142Y-102326190D01*
X206678571Y-102326190D02*
X206678571Y-101826190D01*
X206488095Y-101826190D01*
X206440476Y-101850000D01*
X206416666Y-101873809D01*
X206392857Y-101921428D01*
X206392857Y-101992857D01*
X206416666Y-102040476D01*
X206440476Y-102064285D01*
X206488095Y-102088095D01*
X206678571Y-102088095D01*
X205964285Y-101826190D02*
X206059523Y-101826190D01*
X206107142Y-101850000D01*
X206130952Y-101873809D01*
X206178571Y-101945238D01*
X206202380Y-102040476D01*
X206202380Y-102230952D01*
X206178571Y-102278571D01*
X206154761Y-102302380D01*
X206107142Y-102326190D01*
X206011904Y-102326190D01*
X205964285Y-102302380D01*
X205940476Y-102278571D01*
X205916666Y-102230952D01*
X205916666Y-102111904D01*
X205940476Y-102064285D01*
X205964285Y-102040476D01*
X206011904Y-102016666D01*
X206107142Y-102016666D01*
X206154761Y-102040476D01*
X206178571Y-102064285D01*
X206202380Y-102111904D01*
X207142857Y-99326190D02*
X207142857Y-98826190D01*
X206952380Y-98826190D01*
X206904761Y-98850000D01*
X206880952Y-98873809D01*
X206857142Y-98921428D01*
X206857142Y-98992857D01*
X206880952Y-99040476D01*
X206904761Y-99064285D01*
X206952380Y-99088095D01*
X207142857Y-99088095D01*
X206642857Y-98826190D02*
X206642857Y-99230952D01*
X206619047Y-99278571D01*
X206595238Y-99302380D01*
X206547619Y-99326190D01*
X206452380Y-99326190D01*
X206404761Y-99302380D01*
X206380952Y-99278571D01*
X206357142Y-99230952D01*
X206357142Y-98826190D01*
X205833333Y-99326190D02*
X206000000Y-99088095D01*
X206119047Y-99326190D02*
X206119047Y-98826190D01*
X205928571Y-98826190D01*
X205880952Y-98850000D01*
X205857142Y-98873809D01*
X205833333Y-98921428D01*
X205833333Y-98992857D01*
X205857142Y-99040476D01*
X205880952Y-99064285D01*
X205928571Y-99088095D01*
X206119047Y-99088095D01*
%TO.C,JP8*%
X202164761Y-56402380D02*
X202093333Y-56426190D01*
X201974285Y-56426190D01*
X201926666Y-56402380D01*
X201902857Y-56378571D01*
X201879047Y-56330952D01*
X201879047Y-56283333D01*
X201902857Y-56235714D01*
X201926666Y-56211904D01*
X201974285Y-56188095D01*
X202069523Y-56164285D01*
X202117142Y-56140476D01*
X202140952Y-56116666D01*
X202164761Y-56069047D01*
X202164761Y-56021428D01*
X202140952Y-55973809D01*
X202117142Y-55950000D01*
X202069523Y-55926190D01*
X201950476Y-55926190D01*
X201879047Y-55950000D01*
X201664761Y-56235714D02*
X201283809Y-56235714D01*
X200879047Y-56164285D02*
X200807619Y-56188095D01*
X200783809Y-56211904D01*
X200760000Y-56259523D01*
X200760000Y-56330952D01*
X200783809Y-56378571D01*
X200807619Y-56402380D01*
X200855238Y-56426190D01*
X201045714Y-56426190D01*
X201045714Y-55926190D01*
X200879047Y-55926190D01*
X200831428Y-55950000D01*
X200807619Y-55973809D01*
X200783809Y-56021428D01*
X200783809Y-56069047D01*
X200807619Y-56116666D01*
X200831428Y-56140476D01*
X200879047Y-56164285D01*
X201045714Y-56164285D01*
X200307619Y-56426190D02*
X200545714Y-56426190D01*
X200545714Y-55926190D01*
X201816666Y-58926190D02*
X201816666Y-59283333D01*
X201840476Y-59354761D01*
X201888095Y-59402380D01*
X201959523Y-59426190D01*
X202007142Y-59426190D01*
X201578571Y-59426190D02*
X201578571Y-58926190D01*
X201388095Y-58926190D01*
X201340476Y-58950000D01*
X201316666Y-58973809D01*
X201292857Y-59021428D01*
X201292857Y-59092857D01*
X201316666Y-59140476D01*
X201340476Y-59164285D01*
X201388095Y-59188095D01*
X201578571Y-59188095D01*
X201007142Y-59140476D02*
X201054761Y-59116666D01*
X201078571Y-59092857D01*
X201102380Y-59045238D01*
X201102380Y-59021428D01*
X201078571Y-58973809D01*
X201054761Y-58950000D01*
X201007142Y-58926190D01*
X200911904Y-58926190D01*
X200864285Y-58950000D01*
X200840476Y-58973809D01*
X200816666Y-59021428D01*
X200816666Y-59045238D01*
X200840476Y-59092857D01*
X200864285Y-59116666D01*
X200911904Y-59140476D01*
X201007142Y-59140476D01*
X201054761Y-59164285D01*
X201078571Y-59188095D01*
X201102380Y-59235714D01*
X201102380Y-59330952D01*
X201078571Y-59378571D01*
X201054761Y-59402380D01*
X201007142Y-59426190D01*
X200911904Y-59426190D01*
X200864285Y-59402380D01*
X200840476Y-59378571D01*
X200816666Y-59330952D01*
X200816666Y-59235714D01*
X200840476Y-59188095D01*
X200864285Y-59164285D01*
X200911904Y-59140476D01*
%TO.C,JP14*%
X184354761Y-104226190D02*
X184354761Y-104583333D01*
X184378571Y-104654761D01*
X184426190Y-104702380D01*
X184497619Y-104726190D01*
X184545238Y-104726190D01*
X184116666Y-104726190D02*
X184116666Y-104226190D01*
X183926190Y-104226190D01*
X183878571Y-104250000D01*
X183854761Y-104273809D01*
X183830952Y-104321428D01*
X183830952Y-104392857D01*
X183854761Y-104440476D01*
X183878571Y-104464285D01*
X183926190Y-104488095D01*
X184116666Y-104488095D01*
X183354761Y-104726190D02*
X183640476Y-104726190D01*
X183497619Y-104726190D02*
X183497619Y-104226190D01*
X183545238Y-104297619D01*
X183592857Y-104345238D01*
X183640476Y-104369047D01*
X182926190Y-104392857D02*
X182926190Y-104726190D01*
X183045238Y-104202380D02*
X183164285Y-104559523D01*
X182854761Y-104559523D01*
X184211904Y-101226190D02*
X184116666Y-101226190D01*
X184069047Y-101250000D01*
X184021428Y-101297619D01*
X183997619Y-101392857D01*
X183997619Y-101559523D01*
X184021428Y-101654761D01*
X184069047Y-101702380D01*
X184116666Y-101726190D01*
X184211904Y-101726190D01*
X184259523Y-101702380D01*
X184307142Y-101654761D01*
X184330952Y-101559523D01*
X184330952Y-101392857D01*
X184307142Y-101297619D01*
X184259523Y-101250000D01*
X184211904Y-101226190D01*
X183497619Y-101726190D02*
X183664285Y-101488095D01*
X183783333Y-101726190D02*
X183783333Y-101226190D01*
X183592857Y-101226190D01*
X183545238Y-101250000D01*
X183521428Y-101273809D01*
X183497619Y-101321428D01*
X183497619Y-101392857D01*
X183521428Y-101440476D01*
X183545238Y-101464285D01*
X183592857Y-101488095D01*
X183783333Y-101488095D01*
X183307142Y-101583333D02*
X183069047Y-101583333D01*
X183354761Y-101726190D02*
X183188095Y-101226190D01*
X183021428Y-101726190D01*
%TO.C,JP10*%
X202016666Y-108964285D02*
X201945238Y-108988095D01*
X201921428Y-109011904D01*
X201897619Y-109059523D01*
X201897619Y-109130952D01*
X201921428Y-109178571D01*
X201945238Y-109202380D01*
X201992857Y-109226190D01*
X202183333Y-109226190D01*
X202183333Y-108726190D01*
X202016666Y-108726190D01*
X201969047Y-108750000D01*
X201945238Y-108773809D01*
X201921428Y-108821428D01*
X201921428Y-108869047D01*
X201945238Y-108916666D01*
X201969047Y-108940476D01*
X202016666Y-108964285D01*
X202183333Y-108964285D01*
X201445238Y-109226190D02*
X201683333Y-109226190D01*
X201683333Y-108726190D01*
X201278571Y-109226190D02*
X201278571Y-108726190D01*
X200992857Y-109226190D02*
X201207142Y-108940476D01*
X200992857Y-108726190D02*
X201278571Y-109011904D01*
X202254761Y-111726190D02*
X202254761Y-112083333D01*
X202278571Y-112154761D01*
X202326190Y-112202380D01*
X202397619Y-112226190D01*
X202445238Y-112226190D01*
X202016666Y-112226190D02*
X202016666Y-111726190D01*
X201826190Y-111726190D01*
X201778571Y-111750000D01*
X201754761Y-111773809D01*
X201730952Y-111821428D01*
X201730952Y-111892857D01*
X201754761Y-111940476D01*
X201778571Y-111964285D01*
X201826190Y-111988095D01*
X202016666Y-111988095D01*
X201254761Y-112226190D02*
X201540476Y-112226190D01*
X201397619Y-112226190D02*
X201397619Y-111726190D01*
X201445238Y-111797619D01*
X201492857Y-111845238D01*
X201540476Y-111869047D01*
X200945238Y-111726190D02*
X200897619Y-111726190D01*
X200850000Y-111750000D01*
X200826190Y-111773809D01*
X200802380Y-111821428D01*
X200778571Y-111916666D01*
X200778571Y-112035714D01*
X200802380Y-112130952D01*
X200826190Y-112178571D01*
X200850000Y-112202380D01*
X200897619Y-112226190D01*
X200945238Y-112226190D01*
X200992857Y-112202380D01*
X201016666Y-112178571D01*
X201040476Y-112130952D01*
X201064285Y-112035714D01*
X201064285Y-111916666D01*
X201040476Y-111821428D01*
X201016666Y-111773809D01*
X200992857Y-111750000D01*
X200945238Y-111726190D01*
%TD*%
M02*
