M48
; DRILL file {KiCad (6.0.0-0)} date Sunday, November 27, 2022 at 12:39:46 AM
; FORMAT={-:-/ absolute / inch / decimal}
; #@! TF.CreationDate,2022-11-27T00:39:46-08:00
; #@! TF.GenerationSoftware,Kicad,Pcbnew,(6.0.0-0)
; #@! TF.FileFunction,Plated,1,2,PTH
FMAT,2
INCH
; #@! TA.AperFunction,Plated,PTH,ComponentDrill
T1C0.0236
; #@! TA.AperFunction,Plated,PTH,ComponentDrill
T2C0.0276
; #@! TA.AperFunction,Plated,PTH,ComponentDrill
T3C0.0295
; #@! TA.AperFunction,Plated,PTH,ViaDrill
T4C0.0315
; #@! TA.AperFunction,Plated,PTH,ComponentDrill
T5C0.0315
; #@! TA.AperFunction,Plated,PTH,ComponentDrill
T6C0.0354
; #@! TA.AperFunction,Plated,PTH,ComponentDrill
T7C0.0394
; #@! TA.AperFunction,Plated,PTH,ComponentDrill
T8C0.0433
%
G90
G05
T1
X7.8937Y-2.7058
X7.8937Y-2.7845
X7.8976Y-2.9646
X7.8976Y-3.0433
X8.3071Y-3.8082
X8.3071Y-3.8869
X8.318Y-3.3661
X8.3653Y-2.9961
X8.3771Y-3.3661
X8.4243Y-2.9961
X8.4488Y-2.6024
X8.4775Y-3.7598
X8.4803Y-1.9252
X8.5079Y-2.6024
X8.5394Y-1.9252
X8.5562Y-3.7598
X8.6929Y-1.9724
X8.6929Y-2.0315
T2
X7.2756Y-2.7165
X7.2756Y-2.815
X7.2984Y-2.1614
X7.3071Y-3.1417
X7.3189Y-1.8346
X7.3189Y-1.9346
X7.3583Y-2.7827
X7.3583Y-2.8827
X7.3984Y-2.1614
X7.4071Y-3.1417
X7.4409Y-4.1724
X7.4409Y-4.2724
X7.4591Y-2.5787
X7.4795Y-3.8661
X7.4803Y-2.1732
X7.4835Y-3.5433
X7.4835Y-3.6299
X7.4874Y-3.685
X7.4874Y-3.9528
X7.4913Y-4.1102
X7.4961Y-3.137
X7.4961Y-3.237
X7.5157Y-1.878
X7.5591Y-2.5787
X7.563Y-1.7992
X7.5795Y-3.8661
X7.5803Y-2.1732
X7.5835Y-3.5433
X7.5835Y-3.6299
X7.5874Y-3.685
X7.5874Y-3.9528
X7.5913Y-4.1102
X7.5937Y-4.2244
X7.5984Y-2.326
X7.5984Y-2.426
X7.6102Y-2.6614
X7.6157Y-1.878
X7.6606Y-1.9685
X7.663Y-1.7992
X7.6772Y-4.0228
X7.6772Y-4.1228
X7.6937Y-4.2244
X7.7102Y-2.6614
X7.7126Y-2.1449
X7.7126Y-2.2449
X7.7441Y-3.1921
X7.7441Y-3.2921
X7.7559Y-4.0031
X7.7559Y-4.1031
X7.7606Y-1.9685
X7.7795Y-2.4323
X7.7795Y-2.5323
X7.874Y-2.4323
X7.874Y-2.5323
X7.8878Y-3.2323
X7.8937Y-2.015
X7.8937Y-2.115
X7.9244Y-3.3307
X7.9862Y-3.2323
X8.0142Y-2.0827
X8.0244Y-3.3307
X8.0268Y-1.9921
X8.0354Y-3.6087
X8.0354Y-3.7087
X8.0701Y-2.6732
X8.1142Y-2.0827
X8.1268Y-1.9921
X8.1693Y-2.8563
X8.1693Y-2.9547
X8.1701Y-2.6732
X8.2441Y-1.874
X8.252Y-2.578
X8.252Y-2.678
X8.252Y-2.9055
X8.252Y-3.0055
X8.3425Y-2.6134
X8.3425Y-2.7134
X8.3441Y-1.874
X8.3504Y-2.8189
X8.3504Y-3.5063
X8.3504Y-3.6063
X8.3685Y-3.1299
X8.3685Y-3.2087
X8.448Y-2.748
X8.4504Y-2.8189
X8.4626Y-3.5827
X8.4653Y-3.3127
X8.4685Y-3.1299
X8.4685Y-3.2087
X8.5295Y-2.8819
X8.5472Y-3.3701
X8.548Y-2.748
X8.5551Y-3.2008
X8.5551Y-3.3008
X8.561Y-3.5827
X8.6181Y-2.624
X8.6181Y-2.7224
X8.628Y-2.8819
X8.6339Y-3.1457
X8.6339Y-3.2457
X8.6606Y-3.8307
X8.6772Y-3.7362
X8.6961Y-3.622
X8.7079Y-2.9921
X8.7606Y-3.8307
X8.7772Y-3.7362
X8.7961Y-3.622
X8.8079Y-2.9921
X8.8102Y-3.7795
X8.815Y-1.9094
X8.815Y-2.0094
X8.8378Y-2.5197
X8.9102Y-3.7795
X8.9197Y-2.9921
X8.9236Y-3.622
X8.9378Y-2.5197
X8.9488Y-1.811
X8.9587Y-2.0433
X8.9823Y-3.7244
X9.0197Y-2.9921
X9.0236Y-3.622
X9.0488Y-1.811
X9.0571Y-2.0433
X9.0807Y-3.7244
X9.0945Y-3.3299
X9.0945Y-3.4299
X9.1024Y-2.6961
X9.1024Y-2.7961
X9.1102Y-2.9252
X9.126Y-1.8732
X9.126Y-1.9732
X9.126Y-3.5496
X9.126Y-3.6496
X9.1417Y-3.822
X9.1417Y-3.922
X9.1535Y-3.0236
X9.1567Y-3.2323
X9.1606Y-2.4449
X9.187Y-3.1339
X9.2102Y-2.9252
X9.2244Y-2.2283
X9.2244Y-2.3268
X9.2323Y-3.5929
X9.2323Y-3.6929
X9.2535Y-3.0236
X9.2567Y-3.2323
X9.2606Y-2.4449
X9.2677Y-2.515
X9.2677Y-2.615
X9.2854Y-3.1339
X9.311Y-3.3681
X9.311Y-3.4665
T3
X7.3944Y-2.0672
X7.4444Y-2.0672
X7.4944Y-2.0672
X7.5472Y-2.0684
X7.5972Y-2.0684
X7.6913Y-3.3937
X7.6982Y-3.7453
X7.6982Y-3.7953
X7.6982Y-3.8453
X7.7073Y-3.4933
X7.7073Y-3.5433
X7.7073Y-3.5933
X7.711Y-2.3425
X7.7413Y-3.3937
X7.761Y-2.3425
X7.7913Y-3.3937
X7.811Y-2.3425
X7.8254Y-2.0287
X7.8254Y-2.0787
X7.8254Y-2.1287
X7.9959Y-2.4803
X8.0827Y-2.8555
X8.0827Y-2.9055
X8.0827Y-2.9555
X8.0859Y-2.4253
X8.0859Y-2.5353
X8.2927Y-3.1035
X8.2927Y-3.1535
X8.2927Y-3.2035
X9.1299Y-2.1835
X9.1299Y-2.2335
X9.1299Y-2.2835
T4
X8.5512Y-2.3583
X8.6102Y-2.3583
T5
X7.3031Y-2.3246
X7.3031Y-2.4033
X7.374Y-3.4272
X7.374Y-3.5256
X7.437Y-2.7362
X7.437Y-2.8362
X7.437Y-2.9362
X7.437Y-3.0362
X7.4823Y-3.4724
X7.4882Y-4.0276
X7.5807Y-3.4724
X7.5866Y-4.0276
X7.6142Y-3.1494
X7.6142Y-3.2478
X7.737Y-2.7362
X7.737Y-2.8362
X7.737Y-2.9362
X7.737Y-3.0362
X7.7953Y-1.6614
X7.7953Y-1.8583
X7.811Y-3.7933
X7.811Y-3.8917
X7.8622Y-3.5335
X7.8622Y-3.6319
X8.0217Y-1.9094
X8.1024Y-2.7717
X8.1201Y-1.9094
X8.1969Y-2.1331
X8.1969Y-2.4331
X8.2008Y-2.7717
X8.2969Y-2.1331
X8.2969Y-2.4331
X8.3012Y-2.0315
X8.3969Y-2.1331
X8.3969Y-2.4331
X8.3996Y-2.0315
X8.4626Y-3.4764
X8.4969Y-2.1331
X8.4969Y-2.4331
X8.561Y-3.4764
X8.6488Y-2.1339
X8.6488Y-2.4339
X8.7008Y-2.5827
X8.7008Y-2.6827
X8.7008Y-2.7827
X8.7008Y-2.8827
X8.7126Y-3.2087
X8.7126Y-3.3087
X8.7126Y-3.4087
X8.7126Y-3.5087
X8.7488Y-2.1339
X8.7488Y-2.4339
X8.7949Y-4.3898
X8.8425Y-4.1306
X8.8425Y-4.229
X8.8488Y-2.1339
X8.8488Y-2.4339
X8.9488Y-2.1339
X8.9488Y-2.4339
X8.949Y-3.9409
X9.0008Y-2.5827
X9.0008Y-2.6827
X9.0008Y-2.7827
X9.0008Y-2.8827
X9.0126Y-3.2087
X9.0126Y-3.3087
X9.0126Y-3.4087
X9.0126Y-3.5087
X9.0474Y-3.9409
X9.0949Y-4.3898
X9.185Y-3.3287
X9.185Y-3.4272
X9.2283Y-1.9587
X9.2283Y-2.0571
X9.2835Y-3.7795
X9.2835Y-3.9764
T6
X7.3465Y-1.6801
X7.4449Y-1.7785
X7.5433Y-1.6801
X8.7008Y-1.6841
X8.7992Y-1.7825
X8.8976Y-1.6841
X9.0906Y-1.6841
X9.189Y-1.7825
X9.2874Y-1.6841
T7
X7.2816Y-3.3189
X7.3816Y-3.3189
X7.4846Y-3.7598
X7.5846Y-3.7598
X7.6772Y-2.4273
X7.6772Y-2.5273
X8.1123Y-3.1614
X8.2123Y-3.1614
X9.1929Y-2.7225
X9.1929Y-2.8225
X9.2717Y-2.7129
X9.2717Y-2.8129
T8
X7.2323Y-4.0551
X7.315Y-4.189
X7.4409Y-4.3701
X7.5079Y-2.3346
X7.8071Y-4.2205
X7.9291Y-2.2717
X7.9291Y-4.1181
X7.9331Y-3.9685
X7.937Y-4.3504
X8.0827Y-2.2717
X8.1299Y-3.9606
X8.4843Y-3.937
X8.6339Y-3.9409
X8.7953Y-3.9449
X9.1102Y-4.1654
X9.311Y-4.1614
T5
G00X8.1339Y-4.1732
M15
G01X8.2362Y-4.1732
M16
G05
G00X8.1417Y-4.4016
M15
G01X8.2283Y-4.4016
M16
G05
G00X8.374Y-4.3346
M15
G01X8.374Y-4.248
M16
G05
T0
M30
