%TF.GenerationSoftware,KiCad,Pcbnew,(6.0.0-0)*%
%TF.CreationDate,2022-11-27T00:39:48-08:00*%
%TF.ProjectId,Ibanez_FL-9,4962616e-657a-45f4-964c-2d392e6b6963,v02*%
%TF.SameCoordinates,Original*%
%TF.FileFunction,Copper,L2,Bot*%
%TF.FilePolarity,Positive*%
%FSLAX46Y46*%
G04 Gerber Fmt 4.6, Leading zero omitted, Abs format (unit mm)*
G04 Created by KiCad (PCBNEW (6.0.0-0)) date 2022-11-27 00:39:48*
%MOMM*%
%LPD*%
G01*
G04 APERTURE LIST*
G04 Aperture macros list*
%AMRoundRect*
0 Rectangle with rounded corners*
0 $1 Rounding radius*
0 $2 $3 $4 $5 $6 $7 $8 $9 X,Y pos of 4 corners*
0 Add a 4 corners polygon primitive as box body*
4,1,4,$2,$3,$4,$5,$6,$7,$8,$9,$2,$3,0*
0 Add four circle primitives for the rounded corners*
1,1,$1+$1,$2,$3*
1,1,$1+$1,$4,$5*
1,1,$1+$1,$6,$7*
1,1,$1+$1,$8,$9*
0 Add four rect primitives between the rounded corners*
20,1,$1+$1,$2,$3,$4,$5,0*
20,1,$1+$1,$4,$5,$6,$7,0*
20,1,$1+$1,$6,$7,$8,$9,0*
20,1,$1+$1,$8,$9,$2,$3,0*%
%AMHorizOval*
0 Thick line with rounded ends*
0 $1 width*
0 $2 $3 position (X,Y) of the first rounded end (center of the circle)*
0 $4 $5 position (X,Y) of the second rounded end (center of the circle)*
0 Add line between two ends*
20,1,$1,$2,$3,$4,$5,0*
0 Add two circle primitives to create the rounded ends*
1,1,$1,$2,$3*
1,1,$1,$4,$5*%
G04 Aperture macros list end*
%TA.AperFunction,ComponentPad*%
%ADD10RoundRect,0.250001X-0.799999X-0.799999X0.799999X-0.799999X0.799999X0.799999X-0.799999X0.799999X0*%
%TD*%
%TA.AperFunction,ComponentPad*%
%ADD11C,1.600000*%
%TD*%
%TA.AperFunction,ComponentPad*%
%ADD12C,1.400000*%
%TD*%
%TA.AperFunction,ComponentPad*%
%ADD13O,1.400000X1.400000*%
%TD*%
%TA.AperFunction,ComponentPad*%
%ADD14R,2.000000X2.000000*%
%TD*%
%TA.AperFunction,ComponentPad*%
%ADD15O,2.000000X2.000000*%
%TD*%
%TA.AperFunction,ComponentPad*%
%ADD16R,1.200000X1.200000*%
%TD*%
%TA.AperFunction,ComponentPad*%
%ADD17C,1.200000*%
%TD*%
%TA.AperFunction,ComponentPad*%
%ADD18R,1.600000X1.600000*%
%TD*%
%TA.AperFunction,ComponentPad*%
%ADD19RoundRect,0.249900X0.275100X0.400100X-0.275100X0.400100X-0.275100X-0.400100X0.275100X-0.400100X0*%
%TD*%
%TA.AperFunction,ComponentPad*%
%ADD20O,1.050000X1.300000*%
%TD*%
%TA.AperFunction,ComponentPad*%
%ADD21RoundRect,0.249900X-0.400100X0.275100X-0.400100X-0.275100X0.400100X-0.275100X0.400100X0.275100X0*%
%TD*%
%TA.AperFunction,ComponentPad*%
%ADD22O,1.300000X1.050000*%
%TD*%
%TA.AperFunction,ComponentPad*%
%ADD23RoundRect,0.249900X0.400100X-0.275100X0.400100X0.275100X-0.400100X0.275100X-0.400100X-0.275100X0*%
%TD*%
%TA.AperFunction,ComponentPad*%
%ADD24O,1.600000X1.600000*%
%TD*%
%TA.AperFunction,ComponentPad*%
%ADD25RoundRect,0.249900X-0.275100X-0.400100X0.275100X-0.400100X0.275100X0.400100X-0.275100X0.400100X0*%
%TD*%
%TA.AperFunction,ComponentPad*%
%ADD26R,4.400000X1.800000*%
%TD*%
%TA.AperFunction,ComponentPad*%
%ADD27O,4.000000X1.800000*%
%TD*%
%TA.AperFunction,ComponentPad*%
%ADD28O,1.800000X4.000000*%
%TD*%
%TA.AperFunction,ComponentPad*%
%ADD29C,1.620000*%
%TD*%
%TA.AperFunction,ComponentPad*%
%ADD30R,1.300000X1.300000*%
%TD*%
%TA.AperFunction,ComponentPad*%
%ADD31C,1.300000*%
%TD*%
%TA.AperFunction,ComponentPad*%
%ADD32HorizOval,1.400000X0.000000X0.000000X0.000000X0.000000X0*%
%TD*%
%TA.AperFunction,ViaPad*%
%ADD33C,1.200000*%
%TD*%
%TA.AperFunction,Conductor*%
%ADD34C,0.152400*%
%TD*%
G04 APERTURE END LIST*
D10*
%TO.P,JP4,1,A*%
%TO.N,Net-(BT1-Pad1)*%
X219300000Y-100100000D03*
%TD*%
D11*
%TO.P,C126,1*%
%TO.N,Net-(C126-Pad1)*%
X213350000Y-51600000D03*
%TO.P,C126,2*%
%TO.N,/CP9*%
X210850000Y-51600000D03*
%TD*%
D12*
%TO.P,R142,1*%
%TO.N,GND*%
X190180000Y-93600000D03*
D13*
%TO.P,R142,2*%
%TO.N,Net-(D104-Pad1)*%
X192720000Y-93600000D03*
%TD*%
D10*
%TO.P,JP11,1,A*%
%TO.N,Net-(JP11-Pad1)*%
X198300000Y-107200000D03*
%TD*%
D11*
%TO.P,C118,1*%
%TO.N,Net-(C118-Pad1)*%
X214950000Y-88300000D03*
%TO.P,C118,2*%
%TO.N,/CP15*%
X217450000Y-88300000D03*
%TD*%
%TO.P,C107,1*%
%TO.N,GND*%
X234400000Y-52250000D03*
%TO.P,C107,2*%
%TO.N,Net-(C107-Pad2)*%
X234400000Y-49750000D03*
%TD*%
D14*
%TO.P,D107,1,K*%
%TO.N,Net-(D107-Pad1)*%
X195000000Y-61652330D03*
D15*
%TO.P,D107,2,A*%
%TO.N,GND*%
X195000000Y-64192330D03*
%TD*%
D16*
%TO.P,C117,1*%
%TO.N,/CP13*%
X211277401Y-85500000D03*
D17*
%TO.P,C117,2*%
%TO.N,Net-(C117-Pad2)*%
X212777401Y-85500000D03*
%TD*%
D11*
%TO.P,CR1,1*%
%TO.N,Net-(C122-Pad2)*%
X199700000Y-89750000D03*
%TO.P,CR1,2*%
%TO.N,Net-(CR1-Pad2)*%
X199700000Y-92250000D03*
%TD*%
D14*
%TO.P,D105,1,K*%
%TO.N,Net-(D105-Pad1)*%
X184952330Y-84300000D03*
D15*
%TO.P,D105,2,A*%
%TO.N,Net-(D105-Pad2)*%
X187492330Y-84300000D03*
%TD*%
D12*
%TO.P,R114,1*%
%TO.N,+5V*%
X209400000Y-47600000D03*
D13*
%TO.P,R114,2*%
%TO.N,Net-(R114-Pad2)*%
X211940000Y-47600000D03*
%TD*%
D12*
%TO.P,R116,1*%
%TO.N,/CP7*%
X224480000Y-64000000D03*
D13*
%TO.P,R116,2*%
%TO.N,GND*%
X227020000Y-64000000D03*
%TD*%
D12*
%TO.P,R162,1*%
%TO.N,GND*%
X197600000Y-64320000D03*
D13*
%TO.P,R162,2*%
%TO.N,Net-(D107-Pad1)*%
X197600000Y-61780000D03*
%TD*%
D16*
%TO.P,C115,1*%
%TO.N,/CP12*%
X212477401Y-76100000D03*
D17*
%TO.P,C115,2*%
%TO.N,Net-(C115-Pad2)*%
X213977401Y-76100000D03*
%TD*%
D12*
%TO.P,R132,1*%
%TO.N,GND*%
X220400000Y-94900000D03*
D13*
%TO.P,R132,2*%
%TO.N,Net-(JP3-Pad1)*%
X222940000Y-94900000D03*
%TD*%
D11*
%TO.P,C101,1*%
%TO.N,Net-(C101-Pad1)*%
X235800000Y-101000000D03*
%TO.P,C101,2*%
%TO.N,Net-(C101-Pad2)*%
X235800000Y-96000000D03*
%TD*%
D14*
%TO.P,D102,1,K*%
%TO.N,Net-(D101-Pad2)*%
X235500000Y-71447670D03*
D15*
%TO.P,D102,2,A*%
%TO.N,/CP5*%
X235500000Y-68907670D03*
%TD*%
D10*
%TO.P,JP5,1,A*%
%TO.N,Net-(C116-Pad2)*%
X215500000Y-100000000D03*
%TD*%
D12*
%TO.P,R130,1*%
%TO.N,Net-(R130-Pad1)*%
X220880000Y-92000000D03*
D13*
%TO.P,R130,2*%
%TO.N,/4.5v*%
X223420000Y-92000000D03*
%TD*%
D18*
%TO.P,C128,1*%
%TO.N,Net-(C128-Pad1)*%
X198000000Y-47200000D03*
D11*
%TO.P,C128,2*%
%TO.N,GND*%
X198000000Y-42200000D03*
%TD*%
%TO.P,C114,1*%
%TO.N,GND*%
X208300000Y-70400000D03*
%TO.P,C114,2*%
%TO.N,Net-(C114-Pad2)*%
X205800000Y-70400000D03*
%TD*%
D12*
%TO.P,R119,1*%
%TO.N,/CP11*%
X212100000Y-71600000D03*
D13*
%TO.P,R119,2*%
%TO.N,Net-(C111-Pad2)*%
X214640000Y-71600000D03*
%TD*%
D16*
%TO.P,C130,1*%
%TO.N,Net-(C130-Pad1)*%
X200500000Y-68727401D03*
D17*
%TO.P,C130,2*%
%TO.N,Net-(C130-Pad2)*%
X200500000Y-70727401D03*
%TD*%
D12*
%TO.P,R121,1*%
%TO.N,Net-(C113-Pad1)*%
X209600000Y-65480000D03*
D13*
%TO.P,R121,2*%
%TO.N,/CP11*%
X209600000Y-68020000D03*
%TD*%
D12*
%TO.P,R149,1*%
%TO.N,Net-(Q108-Pad1)*%
X190000000Y-55200000D03*
D13*
%TO.P,R149,2*%
%TO.N,Net-(C128-Pad1)*%
X192540000Y-55200000D03*
%TD*%
D12*
%TO.P,R153,1*%
%TO.N,/CP8*%
X190900000Y-47700000D03*
D13*
%TO.P,R153,2*%
%TO.N,Net-(C128-Pad1)*%
X193440000Y-47700000D03*
%TD*%
D12*
%TO.P,R124,1*%
%TO.N,/4.5v*%
X215100000Y-79500000D03*
D13*
%TO.P,R124,2*%
%TO.N,Net-(C115-Pad2)*%
X212560000Y-79500000D03*
%TD*%
D10*
%TO.P,JP1,1,A*%
%TO.N,Net-(JP1-Pad1)*%
X236500000Y-105700000D03*
%TD*%
D16*
%TO.P,C110,1*%
%TO.N,/CP7*%
X216100000Y-66100000D03*
D17*
%TO.P,C110,2*%
%TO.N,Net-(C110-Pad2)*%
X214600000Y-66100000D03*
%TD*%
D19*
%TO.P,Q109,1,B*%
%TO.N,Net-(D107-Pad1)*%
X198400000Y-59500000D03*
D20*
%TO.P,Q109,2,C*%
%TO.N,+5V*%
X197130000Y-59500000D03*
%TO.P,Q109,3,E*%
%TO.N,Net-(JP8-Pad2)*%
X195860000Y-59500000D03*
%TD*%
D21*
%TO.P,Q107,1,E*%
%TO.N,+5V*%
X198765000Y-51530000D03*
D22*
%TO.P,Q107,2,C*%
%TO.N,Net-(Q107-Pad2)*%
X198765000Y-52800000D03*
%TO.P,Q107,3,B*%
%TO.N,Net-(C127-Pad2)*%
X198765000Y-54070000D03*
%TD*%
D10*
%TO.P,JP9,1,A*%
%TO.N,Net-(D1-Pad2)*%
X201400000Y-104600000D03*
%TD*%
D12*
%TO.P,R143,1*%
%TO.N,Net-(Q106-Pad1)*%
X196700000Y-83620000D03*
D13*
%TO.P,R143,2*%
%TO.N,Net-(CR2-Pad1)*%
X196700000Y-81080000D03*
%TD*%
D10*
%TO.P,JP13,1,A*%
%TO.N,Net-(JP13-Pad1)*%
X185800000Y-106400000D03*
%TD*%
D12*
%TO.P,C112,1*%
%TO.N,Net-(C112-Pad1)*%
X218900000Y-69150000D03*
%TO.P,C112,2*%
%TO.N,/CP11*%
X218900000Y-66650000D03*
%TD*%
%TO.P,R110,1*%
%TO.N,/CP5*%
X235400000Y-66420000D03*
D13*
%TO.P,R110,2*%
%TO.N,Net-(C106-Pad1)*%
X235400000Y-63880000D03*
%TD*%
D12*
%TO.P,R159,1*%
%TO.N,Net-(C132-Pad1)*%
X190400000Y-79680000D03*
D13*
%TO.P,R159,2*%
%TO.N,GND*%
X190400000Y-82220000D03*
%TD*%
D12*
%TO.P,R127,1*%
%TO.N,/CP4*%
X219300000Y-79900000D03*
D13*
%TO.P,R127,2*%
%TO.N,Net-(C118-Pad1)*%
X219300000Y-82440000D03*
%TD*%
D12*
%TO.P,R101,1*%
%TO.N,Net-(C101-Pad2)*%
X234500000Y-93800000D03*
D13*
%TO.P,R101,2*%
%TO.N,Net-(R101-Pad2)*%
X234500000Y-91260000D03*
%TD*%
D12*
%TO.P,R118,1*%
%TO.N,Net-(C111-Pad2)*%
X214580000Y-69800000D03*
D13*
%TO.P,R118,2*%
%TO.N,Net-(C112-Pad1)*%
X217120000Y-69800000D03*
%TD*%
D12*
%TO.P,R131,1*%
%TO.N,Net-(C120-Pad2)*%
X219980000Y-97300000D03*
D13*
%TO.P,R131,2*%
%TO.N,Net-(JP3-Pad1)*%
X222520000Y-97300000D03*
%TD*%
D16*
%TO.P,C109,1*%
%TO.N,Net-(C109-Pad1)*%
X216900000Y-48900000D03*
D17*
%TO.P,C109,2*%
%TO.N,GND*%
X215400000Y-48900000D03*
%TD*%
D18*
%TO.P,C132,1*%
%TO.N,Net-(C132-Pad1)*%
X193400000Y-79994888D03*
D11*
%TO.P,C132,2*%
%TO.N,GND*%
X193400000Y-82494888D03*
%TD*%
D12*
%TO.P,R109,1*%
%TO.N,Net-(C104-Pad2)*%
X232500000Y-76800000D03*
D13*
%TO.P,R109,2*%
%TO.N,Net-(R109-Pad2)*%
X235040000Y-76800000D03*
%TD*%
D23*
%TO.P,Q103,1,S*%
%TO.N,/CP13*%
X210635000Y-81370000D03*
D22*
%TO.P,Q103,2,G*%
%TO.N,Net-(D103-Pad2)*%
X210635000Y-80100000D03*
%TO.P,Q103,3,D*%
%TO.N,Net-(C115-Pad2)*%
X210635000Y-78830000D03*
%TD*%
D12*
%TO.P,C113,1*%
%TO.N,Net-(C113-Pad1)*%
X207500000Y-72550000D03*
%TO.P,C113,2*%
%TO.N,/CP12*%
X207500000Y-75050000D03*
%TD*%
%TO.P,R157,1*%
%TO.N,Net-(C131-Pad1)*%
X204100000Y-94200000D03*
D13*
%TO.P,R157,2*%
%TO.N,Net-(JP7-Pad2)*%
X204100000Y-91660000D03*
%TD*%
D12*
%TO.P,R136,1*%
%TO.N,GND*%
X190180000Y-100400000D03*
D13*
%TO.P,R136,2*%
%TO.N,Net-(C123-Pad2)*%
X192720000Y-100400000D03*
%TD*%
D12*
%TO.P,R115,1*%
%TO.N,Net-(R115-Pad1)*%
X227300000Y-46000000D03*
D13*
%TO.P,R115,2*%
%TO.N,GND*%
X229840000Y-46000000D03*
%TD*%
D11*
%TO.P,C123,1*%
%TO.N,Net-(C122-Pad1)*%
X190200000Y-102300000D03*
%TO.P,C123,2*%
%TO.N,Net-(C123-Pad2)*%
X192700000Y-102300000D03*
%TD*%
D18*
%TO.P,IC101,1*%
%TO.N,/CP15*%
X221300000Y-81500000D03*
D24*
%TO.P,IC101,2,-*%
%TO.N,Net-(C118-Pad1)*%
X221300000Y-84040000D03*
%TO.P,IC101,3,+*%
%TO.N,Net-(R130-Pad1)*%
X221300000Y-86580000D03*
%TO.P,IC101,4*%
%TO.N,N/C*%
X221300000Y-89120000D03*
%TO.P,IC101,5,+*%
%TO.N,Net-(R101-Pad2)*%
X228920000Y-89120000D03*
%TO.P,IC101,6,-*%
%TO.N,Net-(C102-Pad1)*%
X228920000Y-86580000D03*
%TO.P,IC101,7*%
%TO.N,/CP4*%
X228920000Y-84040000D03*
%TO.P,IC101,8*%
%TO.N,N/C*%
X228920000Y-81500000D03*
%TD*%
D12*
%TO.P,R138,1*%
%TO.N,Net-(R138-Pad1)*%
X190280000Y-104400000D03*
D13*
%TO.P,R138,2*%
%TO.N,Net-(C122-Pad1)*%
X192820000Y-104400000D03*
%TD*%
D10*
%TO.P,JP15,1,A*%
%TO.N,Net-(JP15-Pad1)*%
X205300000Y-57700000D03*
%TD*%
D11*
%TO.P,C127,1*%
%TO.N,Net-(C126-Pad1)*%
X206250000Y-48500000D03*
%TO.P,C127,2*%
%TO.N,Net-(C127-Pad2)*%
X203750000Y-48500000D03*
%TD*%
D12*
%TO.P,R111,1*%
%TO.N,Net-(C107-Pad2)*%
X232680000Y-62100000D03*
D13*
%TO.P,R111,2*%
%TO.N,Net-(C106-Pad1)*%
X235220000Y-62100000D03*
%TD*%
D10*
%TO.P,JP7,1,A*%
%TO.N,Net-(JP7-Pad1)*%
X201500000Y-100800000D03*
%TD*%
D25*
%TO.P,Q108,1,B1*%
%TO.N,Net-(Q108-Pad1)*%
X187817000Y-52506500D03*
D20*
%TO.P,Q108,2,C1*%
X189087000Y-52506500D03*
%TO.P,Q108,3,E*%
%TO.N,GND*%
X190357000Y-52506500D03*
%TO.P,Q108,4,C2*%
%TO.N,Net-(Q108-Pad4)*%
X191699000Y-52536500D03*
D19*
%TO.P,Q108,5,B2*%
%TO.N,Net-(C128-Pad1)*%
X192969000Y-52536500D03*
%TD*%
D12*
%TO.P,C103,1*%
%TO.N,Net-(C103-Pad1)*%
X228150000Y-94600000D03*
%TO.P,C103,2*%
%TO.N,Net-(C103-Pad2)*%
X230650000Y-94600000D03*
%TD*%
%TO.P,C106,1*%
%TO.N,Net-(C106-Pad1)*%
X234300000Y-59100000D03*
%TO.P,C106,2*%
%TO.N,/CP6*%
X234300000Y-56600000D03*
%TD*%
%TO.P,R108,1*%
%TO.N,Net-(C104-Pad2)*%
X231400000Y-74300000D03*
D13*
%TO.P,R108,2*%
%TO.N,Net-(D101-Pad2)*%
X233940000Y-74300000D03*
%TD*%
D11*
%TO.P,C124,1*%
%TO.N,GND*%
X187300000Y-87050000D03*
%TO.P,C124,2*%
%TO.N,Net-(C122-Pad1)*%
X187300000Y-89550000D03*
%TD*%
D10*
%TO.P,JP2,1,A*%
%TO.N,Net-(J1-PadT)*%
X231400000Y-105800000D03*
%TD*%
D12*
%TO.P,R141,1*%
%TO.N,Net-(C122-Pad1)*%
X192880000Y-107300000D03*
D13*
%TO.P,R141,2*%
%TO.N,Net-(JP11-Pad1)*%
X195420000Y-107300000D03*
%TD*%
D21*
%TO.P,Q105,1,B*%
%TO.N,Net-(C122-Pad2)*%
X195765000Y-88730000D03*
D22*
%TO.P,Q105,2,C*%
%TO.N,Net-(CR2-Pad1)*%
X195765000Y-90000000D03*
%TO.P,Q105,3,E*%
%TO.N,Net-(D104-Pad2)*%
X195765000Y-91270000D03*
%TD*%
D12*
%TO.P,R139,1*%
%TO.N,Net-(R138-Pad1)*%
X197000000Y-104220000D03*
D13*
%TO.P,R139,2*%
%TO.N,+9V*%
X197000000Y-101680000D03*
%TD*%
D12*
%TO.P,R145,1*%
%TO.N,/CP9*%
X206100000Y-52900000D03*
D13*
%TO.P,R145,2*%
%TO.N,Net-(Q107-Pad2)*%
X203560000Y-52900000D03*
%TD*%
D12*
%TO.P,R107,1*%
%TO.N,Net-(C104-Pad2)*%
X231200000Y-71020000D03*
D13*
%TO.P,R107,2*%
%TO.N,/CP5*%
X231200000Y-68480000D03*
%TD*%
D18*
%TO.P,IC103,1*%
%TO.N,Net-(C129-Pad2)*%
X188900000Y-69500000D03*
D24*
%TO.P,IC103,2,-*%
%TO.N,Net-(C129-Pad1)*%
X188900000Y-72040000D03*
%TO.P,IC103,3,+*%
%TO.N,Net-(R155-Pad1)*%
X188900000Y-74580000D03*
%TO.P,IC103,4*%
%TO.N,N/C*%
X188900000Y-77120000D03*
%TO.P,IC103,5,+*%
%TO.N,Net-(C132-Pad1)*%
X196520000Y-77120000D03*
%TO.P,IC103,6,-*%
%TO.N,Net-(C131-Pad1)*%
X196520000Y-74580000D03*
%TO.P,IC103,7*%
%TO.N,Net-(C130-Pad1)*%
X196520000Y-72040000D03*
%TO.P,IC103,8*%
%TO.N,N/C*%
X196520000Y-69500000D03*
%TD*%
D11*
%TO.P,C102,1*%
%TO.N,Net-(C102-Pad1)*%
X233300000Y-87050000D03*
%TO.P,C102,2*%
%TO.N,/CP4*%
X233300000Y-84550000D03*
%TD*%
D18*
%TO.P,IC105,1,VDD*%
%TO.N,+5V*%
X208200000Y-61800000D03*
D24*
%TO.P,IC105,2,CP1*%
%TO.N,Net-(IC104-Pad2)*%
X210740000Y-61800000D03*
%TO.P,IC105,3,GND*%
%TO.N,GND*%
X213280000Y-61800000D03*
%TO.P,IC105,4,CP2*%
%TO.N,/CP1*%
X215820000Y-61800000D03*
%TO.P,IC105,5,OX3*%
%TO.N,Net-(C126-Pad1)*%
X215820000Y-54180000D03*
%TO.P,IC105,6,OX2*%
%TO.N,unconnected-(IC105-Pad6)*%
X213280000Y-54180000D03*
%TO.P,IC105,7,OX1*%
%TO.N,/CP9*%
X210740000Y-54180000D03*
%TO.P,IC105,8,VGG*%
%TO.N,Net-(C125-Pad1)*%
X208200000Y-54180000D03*
%TD*%
D12*
%TO.P,R152,1*%
%TO.N,Net-(R152-Pad1)*%
X185900000Y-46600000D03*
D13*
%TO.P,R152,2*%
%TO.N,+5V*%
X185900000Y-49140000D03*
%TD*%
D18*
%TO.P,IC104,1,GND*%
%TO.N,GND*%
X227300000Y-54200000D03*
D24*
%TO.P,IC104,2,CP1*%
%TO.N,Net-(IC104-Pad2)*%
X224760000Y-54200000D03*
%TO.P,IC104,3,IN*%
%TO.N,Net-(C108-Pad2)*%
X222220000Y-54200000D03*
%TO.P,IC104,4,VGG*%
%TO.N,Net-(C125-Pad1)*%
X219680000Y-54200000D03*
%TO.P,IC104,5,VDD*%
%TO.N,+5V*%
X219680000Y-61820000D03*
%TO.P,IC104,6,CP2*%
%TO.N,/CP1*%
X222220000Y-61820000D03*
%TO.P,IC104,7,OUT1*%
%TO.N,/CP7*%
X224760000Y-61820000D03*
%TO.P,IC104,8,OUT2*%
X227300000Y-61820000D03*
%TD*%
D12*
%TO.P,R104,1*%
%TO.N,Net-(C105-Pad2)*%
X231800000Y-92700000D03*
D13*
%TO.P,R104,2*%
%TO.N,Net-(C102-Pad1)*%
X231800000Y-90160000D03*
%TD*%
D26*
%TO.P,J3,1*%
%TO.N,GND*%
X207900000Y-106000000D03*
D27*
%TO.P,J3,2*%
%TO.N,+9V*%
X207900000Y-111800000D03*
D28*
%TO.P,J3,3*%
%TO.N,Net-(J3-Pad3)*%
X212700000Y-109000000D03*
%TD*%
D12*
%TO.P,C111,1*%
%TO.N,GND*%
X216650000Y-73200000D03*
%TO.P,C111,2*%
%TO.N,Net-(C111-Pad2)*%
X219150000Y-73200000D03*
%TD*%
D29*
%TO.P,RV103,1,1*%
%TO.N,Net-(R109-Pad2)*%
X235900000Y-42775000D03*
%TO.P,RV103,2,2*%
%TO.N,Net-(C103-Pad1)*%
X233400000Y-45275000D03*
%TO.P,RV103,3,3*%
X230900000Y-42775000D03*
%TD*%
D10*
%TO.P,JP12,1,A*%
%TO.N,Net-(D1-Pad1)*%
X189000000Y-111000000D03*
%TD*%
%TO.P,JP16,1,A*%
%TO.N,Net-(JP16-Pad1)*%
X190700000Y-59300000D03*
%TD*%
D12*
%TO.P,C121,1*%
%TO.N,GND*%
X200350000Y-82100000D03*
%TO.P,C121,2*%
%TO.N,/CP14*%
X202850000Y-82100000D03*
%TD*%
%TO.P,C105,1*%
%TO.N,/4.5v*%
X236500000Y-88050000D03*
%TO.P,C105,2*%
%TO.N,Net-(C105-Pad2)*%
X236500000Y-85550000D03*
%TD*%
%TO.P,R134,1*%
%TO.N,+9V*%
X190080000Y-92200000D03*
D13*
%TO.P,R134,2*%
%TO.N,Net-(CR2-Pad1)*%
X192620000Y-92200000D03*
%TD*%
D10*
%TO.P,JP3,1,A*%
%TO.N,Net-(JP3-Pad1)*%
X223400000Y-100200000D03*
%TD*%
D12*
%TO.P,R163,1*%
%TO.N,+9V*%
X232200000Y-97080000D03*
D13*
%TO.P,R163,2*%
%TO.N,/4.5v*%
X232200000Y-99620000D03*
%TD*%
D12*
%TO.P,R103,1*%
%TO.N,Net-(C102-Pad1)*%
X231000000Y-87120000D03*
D13*
%TO.P,R103,2*%
%TO.N,/CP4*%
X231000000Y-84580000D03*
%TD*%
D19*
%TO.P,Q106,1,B*%
%TO.N,Net-(Q106-Pad1)*%
X197900000Y-86200000D03*
D20*
%TO.P,Q106,2,C*%
%TO.N,Net-(Q106-Pad2)*%
X196630000Y-86200000D03*
%TO.P,Q106,3,E*%
%TO.N,Net-(D104-Pad2)*%
X195360000Y-86200000D03*
%TD*%
D12*
%TO.P,R112,1*%
%TO.N,GND*%
X231800000Y-47580000D03*
D13*
%TO.P,R112,2*%
%TO.N,/CP6*%
X231800000Y-50120000D03*
%TD*%
D23*
%TO.P,Q101,1,B*%
%TO.N,Net-(C107-Pad2)*%
X231900000Y-58000000D03*
D22*
%TO.P,Q101,2,C*%
%TO.N,/4.5v*%
X231900000Y-56730000D03*
%TO.P,Q101,3,E*%
%TO.N,/CP6*%
X231900000Y-55460000D03*
%TD*%
D29*
%TO.P,RV102,1,1*%
%TO.N,Net-(R114-Pad2)*%
X226000000Y-42775000D03*
%TO.P,RV102,2,2*%
%TO.N,Net-(C109-Pad1)*%
X223500000Y-45275000D03*
%TO.P,RV102,3,3*%
%TO.N,Net-(R115-Pad1)*%
X221000000Y-42775000D03*
%TD*%
D12*
%TO.P,C129,1*%
%TO.N,Net-(C129-Pad1)*%
X184800000Y-71500000D03*
%TO.P,C129,2*%
%TO.N,Net-(C129-Pad2)*%
X184800000Y-69000000D03*
%TD*%
D16*
%TO.P,C116,1*%
%TO.N,/CP13*%
X211000000Y-96727401D03*
D17*
%TO.P,C116,2*%
%TO.N,Net-(C116-Pad2)*%
X211000000Y-98727401D03*
%TD*%
D12*
%TO.P,C119,1*%
%TO.N,Net-(C119-Pad1)*%
X214950000Y-91000000D03*
%TO.P,C119,2*%
%TO.N,/CP15*%
X217450000Y-91000000D03*
%TD*%
D29*
%TO.P,RV101,1,1*%
%TO.N,GND*%
X191600000Y-42675000D03*
%TO.P,RV101,2,2*%
%TO.N,Net-(R151-Pad1)*%
X189100000Y-45175000D03*
%TO.P,RV101,3,3*%
%TO.N,Net-(R152-Pad1)*%
X186600000Y-42675000D03*
%TD*%
D12*
%TO.P,R125,1*%
%TO.N,/4.5v*%
X215100000Y-81500000D03*
D13*
%TO.P,R125,2*%
%TO.N,/CP13*%
X212560000Y-81500000D03*
%TD*%
D12*
%TO.P,R140,1*%
%TO.N,Net-(R138-Pad1)*%
X195000000Y-104720000D03*
D13*
%TO.P,R140,2*%
%TO.N,GND*%
X195000000Y-102180000D03*
%TD*%
D18*
%TO.P,IC102,1*%
%TO.N,/CP11*%
X221000000Y-65600000D03*
D24*
%TO.P,IC102,2,-*%
%TO.N,Net-(C112-Pad1)*%
X221000000Y-68140000D03*
%TO.P,IC102,3,+*%
%TO.N,Net-(R120-Pad1)*%
X221000000Y-70680000D03*
%TO.P,IC102,4*%
%TO.N,N/C*%
X221000000Y-73220000D03*
%TO.P,IC102,5,+*%
%TO.N,Net-(R106-Pad1)*%
X228620000Y-73220000D03*
%TO.P,IC102,6,-*%
%TO.N,Net-(C104-Pad2)*%
X228620000Y-70680000D03*
%TO.P,IC102,7*%
%TO.N,/CP5*%
X228620000Y-68140000D03*
%TO.P,IC102,8*%
%TO.N,N/C*%
X228620000Y-65600000D03*
%TD*%
D12*
%TO.P,R120,1*%
%TO.N,Net-(R120-Pad1)*%
X221180000Y-76000000D03*
D13*
%TO.P,R120,2*%
%TO.N,/4.5v*%
X223720000Y-76000000D03*
%TD*%
D14*
%TO.P,D104,1,K*%
%TO.N,Net-(D104-Pad1)*%
X192647670Y-95500000D03*
D15*
%TO.P,D104,2,A*%
%TO.N,Net-(D104-Pad2)*%
X190107670Y-95500000D03*
%TD*%
D16*
%TO.P,C120,1*%
%TO.N,/CP15*%
X215327401Y-95500000D03*
D17*
%TO.P,C120,2*%
%TO.N,Net-(C120-Pad2)*%
X217327401Y-95500000D03*
%TD*%
D12*
%TO.P,R122,1*%
%TO.N,Net-(C113-Pad1)*%
X207520000Y-67900000D03*
D13*
%TO.P,R122,2*%
%TO.N,Net-(C114-Pad2)*%
X204980000Y-67900000D03*
%TD*%
D10*
%TO.P,JP6,1,A*%
%TO.N,Net-(JP6-Pad1)*%
X206500000Y-100600000D03*
%TD*%
D12*
%TO.P,R133,1*%
%TO.N,/CP14*%
X203820000Y-84600000D03*
D13*
%TO.P,R133,2*%
%TO.N,Net-(CR2-Pad1)*%
X201280000Y-84600000D03*
%TD*%
D21*
%TO.P,Q102,1,B*%
%TO.N,Net-(C114-Pad2)*%
X205300000Y-72530000D03*
D22*
%TO.P,Q102,2,C*%
%TO.N,/4.5v*%
X205300000Y-73800000D03*
%TO.P,Q102,3,E*%
%TO.N,/CP12*%
X205300000Y-75070000D03*
%TD*%
D12*
%TO.P,R105,1*%
%TO.N,/CP4*%
X232580000Y-82100000D03*
D13*
%TO.P,R105,2*%
%TO.N,Net-(C104-Pad1)*%
X235120000Y-82100000D03*
%TD*%
D12*
%TO.P,R106,1*%
%TO.N,Net-(R106-Pad1)*%
X229100000Y-76000000D03*
D13*
%TO.P,R106,2*%
%TO.N,/4.5v*%
X226560000Y-76000000D03*
%TD*%
D30*
%TO.P,IC106,1,VO*%
%TO.N,+5V*%
X205383000Y-61603000D03*
D31*
%TO.P,IC106,2,GND*%
%TO.N,GND*%
X203097000Y-63000000D03*
%TO.P,IC106,3,VI*%
%TO.N,+9V*%
X205383000Y-64397000D03*
%TD*%
D12*
%TO.P,R161,1*%
%TO.N,Net-(D107-Pad1)*%
X195900000Y-57020000D03*
D13*
%TO.P,R161,2*%
%TO.N,+5V*%
X195900000Y-54480000D03*
%TD*%
D18*
%TO.P,D106,1,K*%
%TO.N,+9V*%
X223390000Y-111500000D03*
D24*
%TO.P,D106,2,A*%
%TO.N,GND*%
X231010000Y-111500000D03*
%TD*%
D18*
%TO.P,C133,1*%
%TO.N,+9V*%
X224600000Y-104917621D03*
D11*
%TO.P,C133,2*%
%TO.N,GND*%
X224600000Y-107417621D03*
%TD*%
D10*
%TO.P,JP8,1,A*%
%TO.N,Net-(JP8-Pad1)*%
X201400000Y-57700000D03*
%TD*%
D11*
%TO.P,CR2,1*%
%TO.N,Net-(CR2-Pad1)*%
X198400000Y-96350000D03*
%TO.P,CR2,2*%
%TO.N,Net-(C123-Pad2)*%
X198400000Y-98850000D03*
%TD*%
D12*
%TO.P,R126,1*%
%TO.N,Net-(C118-Pad1)*%
X217100000Y-85600000D03*
D32*
%TO.P,R126,2*%
%TO.N,Net-(C117-Pad2)*%
X215019354Y-84143116D03*
%TD*%
D14*
%TO.P,D101,1,K*%
%TO.N,/CP5*%
X233500000Y-69152330D03*
D15*
%TO.P,D101,2,A*%
%TO.N,Net-(D101-Pad2)*%
X233500000Y-71692330D03*
%TD*%
D12*
%TO.P,C108,1*%
%TO.N,/CP6*%
X230050000Y-51900000D03*
%TO.P,C108,2*%
%TO.N,Net-(C108-Pad2)*%
X227550000Y-51900000D03*
%TD*%
%TO.P,R102,1*%
%TO.N,Net-(R101-Pad2)*%
X229200000Y-92000000D03*
D13*
%TO.P,R102,2*%
%TO.N,/4.5v*%
X226660000Y-92000000D03*
%TD*%
D12*
%TO.P,R113,1*%
%TO.N,Net-(C109-Pad1)*%
X223900000Y-48500000D03*
D13*
%TO.P,R113,2*%
%TO.N,Net-(C108-Pad2)*%
X223900000Y-51040000D03*
%TD*%
D14*
%TO.P,D103,1,K*%
%TO.N,/CP14*%
X206052330Y-80300000D03*
D15*
%TO.P,D103,2,A*%
%TO.N,Net-(D103-Pad2)*%
X208592330Y-80300000D03*
%TD*%
D12*
%TO.P,C104,1*%
%TO.N,Net-(C104-Pad1)*%
X235850000Y-79600000D03*
%TO.P,C104,2*%
%TO.N,Net-(C104-Pad2)*%
X233350000Y-79600000D03*
%TD*%
%TO.P,R146,1*%
%TO.N,Net-(C126-Pad1)*%
X206420000Y-50600000D03*
D13*
%TO.P,R146,2*%
%TO.N,Net-(C127-Pad2)*%
X203880000Y-50600000D03*
%TD*%
D10*
%TO.P,JP14,1,A*%
%TO.N,Net-(JP14-Pad1)*%
X183700000Y-103000000D03*
%TD*%
D12*
%TO.P,R165,1*%
%TO.N,GND*%
X200000000Y-64320000D03*
D13*
%TO.P,R165,2*%
%TO.N,Net-(JP8-Pad2)*%
X200000000Y-61780000D03*
%TD*%
D12*
%TO.P,R128,1*%
%TO.N,Net-(C119-Pad1)*%
X212100000Y-91600000D03*
D13*
%TO.P,R128,2*%
%TO.N,Net-(C118-Pad1)*%
X212100000Y-89060000D03*
%TD*%
D16*
%TO.P,C131,1*%
%TO.N,Net-(C131-Pad1)*%
X200600000Y-77300000D03*
D17*
%TO.P,C131,2*%
%TO.N,Net-(C130-Pad2)*%
X200600000Y-75300000D03*
%TD*%
D12*
%TO.P,R137,1*%
%TO.N,GND*%
X190080000Y-90000000D03*
D13*
%TO.P,R137,2*%
%TO.N,Net-(C122-Pad2)*%
X192620000Y-90000000D03*
%TD*%
D12*
%TO.P,R158,1*%
%TO.N,Net-(C132-Pad1)*%
X193300000Y-67600000D03*
D13*
%TO.P,R158,2*%
%TO.N,+5V*%
X195840000Y-67600000D03*
%TD*%
D12*
%TO.P,R156,1*%
%TO.N,Net-(C130-Pad1)*%
X192000000Y-65500000D03*
D13*
%TO.P,R156,2*%
%TO.N,Net-(R155-Pad1)*%
X189460000Y-65500000D03*
%TD*%
D16*
%TO.P,C125,1*%
%TO.N,Net-(C125-Pad1)*%
X220800000Y-51600000D03*
D17*
%TO.P,C125,2*%
%TO.N,GND*%
X220800000Y-50100000D03*
%TD*%
D18*
%TO.P,C134,1*%
%TO.N,+5V*%
X185500000Y-59044888D03*
D11*
%TO.P,C134,2*%
%TO.N,GND*%
X185500000Y-61044888D03*
%TD*%
D12*
%TO.P,R135,1*%
%TO.N,+9V*%
X189980000Y-98200000D03*
D13*
%TO.P,R135,2*%
%TO.N,Net-(CR1-Pad2)*%
X192520000Y-98200000D03*
%TD*%
D12*
%TO.P,R150,1*%
%TO.N,Net-(Q108-Pad1)*%
X185380000Y-54900000D03*
D13*
%TO.P,R150,2*%
%TO.N,+5V*%
X187920000Y-54900000D03*
%TD*%
D12*
%TO.P,R154,1*%
%TO.N,Net-(C129-Pad1)*%
X185600000Y-79800000D03*
D13*
%TO.P,R154,2*%
%TO.N,Net-(C132-Pad1)*%
X188140000Y-79800000D03*
%TD*%
D23*
%TO.P,Q104,1,B*%
%TO.N,Net-(C123-Pad2)*%
X195535000Y-97670000D03*
D22*
%TO.P,Q104,2,C*%
%TO.N,Net-(CR1-Pad2)*%
X195535000Y-96400000D03*
%TO.P,Q104,3,E*%
%TO.N,Net-(D104-Pad2)*%
X195535000Y-95130000D03*
%TD*%
D12*
%TO.P,R148,1*%
%TO.N,Net-(Q107-Pad2)*%
X197120000Y-50000000D03*
D13*
%TO.P,R148,2*%
%TO.N,Net-(Q108-Pad4)*%
X194580000Y-50000000D03*
%TD*%
D12*
%TO.P,R117,1*%
%TO.N,Net-(C110-Pad2)*%
X211900000Y-66380000D03*
D13*
%TO.P,R117,2*%
%TO.N,Net-(C111-Pad2)*%
X211900000Y-68920000D03*
%TD*%
D12*
%TO.P,R147,1*%
%TO.N,+5V*%
X200500000Y-53720000D03*
D13*
%TO.P,R147,2*%
%TO.N,Net-(C127-Pad2)*%
X200500000Y-51180000D03*
%TD*%
D12*
%TO.P,R144,1*%
%TO.N,Net-(D105-Pad2)*%
X189000000Y-105980000D03*
D13*
%TO.P,R144,2*%
%TO.N,Net-(Q106-Pad2)*%
X189000000Y-108520000D03*
%TD*%
D12*
%TO.P,R164,1*%
%TO.N,GND*%
X223780000Y-96000000D03*
D13*
%TO.P,R164,2*%
%TO.N,/4.5v*%
X226320000Y-96000000D03*
%TD*%
D18*
%TO.P,C135,1*%
%TO.N,/4.5v*%
X229805113Y-100100000D03*
D11*
%TO.P,C135,2*%
%TO.N,GND*%
X227305113Y-100100000D03*
%TD*%
D12*
%TO.P,R160,1*%
%TO.N,Net-(D107-Pad1)*%
X193000000Y-61620000D03*
D13*
%TO.P,R160,2*%
%TO.N,Net-(JP16-Pad2)*%
X193000000Y-59080000D03*
%TD*%
D10*
%TO.P,JP10,1,A*%
%TO.N,Net-(JP10-Pad1)*%
X201600000Y-110500000D03*
%TD*%
D11*
%TO.P,C122,1*%
%TO.N,Net-(C122-Pad1)*%
X190050000Y-88200000D03*
%TO.P,C122,2*%
%TO.N,Net-(C122-Pad2)*%
X192550000Y-88200000D03*
%TD*%
D12*
%TO.P,R151,1*%
%TO.N,Net-(R151-Pad1)*%
X192100000Y-45700000D03*
D13*
%TO.P,R151,2*%
%TO.N,Net-(C128-Pad1)*%
X194640000Y-45700000D03*
%TD*%
D12*
%TO.P,R155,1*%
%TO.N,Net-(R155-Pad1)*%
X186900000Y-73220000D03*
D13*
%TO.P,R155,2*%
%TO.N,Net-(C129-Pad2)*%
X186900000Y-70680000D03*
%TD*%
D12*
%TO.P,R129,1*%
%TO.N,Net-(C118-Pad1)*%
X217300000Y-81300000D03*
D13*
%TO.P,R129,2*%
%TO.N,/CP15*%
X217300000Y-83840000D03*
%TD*%
D12*
%TO.P,R123,1*%
%TO.N,GND*%
X209600000Y-73800000D03*
D13*
%TO.P,R123,2*%
%TO.N,/CP12*%
X209600000Y-76340000D03*
%TD*%
D33*
%TO.N,/CP1*%
X218700000Y-59900000D03*
X217200000Y-59900000D03*
%TD*%
D34*
%TO.N,/CP1*%
X214820000Y-61600000D02*
X214820000Y-60180000D01*
X220500000Y-59500000D02*
X221220000Y-60220000D01*
X215500000Y-59500000D02*
X216000000Y-59500000D01*
X216000000Y-59500000D02*
X217500000Y-59500000D01*
X221220000Y-60220000D02*
X221220000Y-61620000D01*
X217500000Y-59500000D02*
X220500000Y-59500000D01*
X214820000Y-60180000D02*
X215500000Y-59500000D01*
%TD*%
M02*
