M48
; DRILL file {KiCad (6.0.0-0)} date Thursday, November 24, 2022 at 10:29:55 AM
; FORMAT={-:-/ absolute / inch / decimal}
; #@! TF.CreationDate,2022-11-24T10:29:55-08:00
; #@! TF.GenerationSoftware,Kicad,Pcbnew,(6.0.0-0)
; #@! TF.FileFunction,Plated,1,2,PTH
FMAT,2
INCH
; #@! TA.AperFunction,Plated,PTH,ComponentDrill
T1C0.0236
; #@! TA.AperFunction,Plated,PTH,ComponentDrill
T2C0.0276
; #@! TA.AperFunction,Plated,PTH,ComponentDrill
T3C0.0295
; #@! TA.AperFunction,Plated,PTH,ViaDrill
T4C0.0315
; #@! TA.AperFunction,Plated,PTH,ComponentDrill
T5C0.0315
; #@! TA.AperFunction,Plated,PTH,ComponentDrill
T6C0.0354
; #@! TA.AperFunction,Plated,PTH,ComponentDrill
T7C0.0394
; #@! TA.AperFunction,Plated,PTH,ComponentDrill
T8C0.0433
%
G90
G05
T1
X8.2156Y-3.374
X8.2393Y-3.0118
X8.2747Y-3.374
X8.2983Y-3.0118
X8.4055Y-2.5984
X8.434Y-1.8898
X8.4646Y-2.5984
X8.493Y-1.8898
X8.6417Y-1.9379
X8.6417Y-1.997
T2
X7.2551Y-2.2047
X7.2906Y-3.1457
X7.3425Y-1.8614
X7.3425Y-1.9614
X7.3551Y-2.2047
X7.3583Y-2.7827
X7.3583Y-2.8827
X7.3906Y-3.1457
X7.4323Y-2.2047
X7.4449Y-3.1803
X7.4449Y-3.2803
X7.452Y-2.5709
X7.4606Y-4.1843
X7.4606Y-4.2843
X7.4795Y-3.8661
X7.4835Y-3.5433
X7.4835Y-3.6299
X7.4874Y-3.685
X7.4874Y-3.9528
X7.4913Y-4.1102
X7.5197Y-1.9488
X7.5323Y-2.2047
X7.5504Y-1.8701
X7.552Y-2.5709
X7.5787Y-2.0276
X7.5787Y-2.2906
X7.5787Y-2.3906
X7.5795Y-3.8661
X7.5835Y-3.5433
X7.5835Y-3.6299
X7.5874Y-3.685
X7.5874Y-3.9528
X7.5913Y-4.1102
X7.5937Y-4.2244
X7.6197Y-1.9488
X7.637Y-2.6496
X7.6504Y-1.8701
X7.6772Y-4.0228
X7.6772Y-4.1228
X7.6787Y-2.0276
X7.6937Y-4.2244
X7.7087Y-2.1134
X7.7087Y-2.2134
X7.7362Y-3.3142
X7.7362Y-3.4142
X7.737Y-2.6496
X7.7559Y-4.0031
X7.7559Y-4.1031
X7.7756Y-2.4874
X7.7756Y-2.5874
X7.8543Y-2.4677
X7.8543Y-2.5677
X7.8937Y-2.015
X7.8937Y-2.115
X7.9205Y-3.4646
X7.9992Y-2.0827
X8.0031Y-2.6378
X8.011Y-1.9803
X8.0205Y-3.4646
X8.0709Y-3.7079
X8.0709Y-3.8079
X8.0992Y-2.0827
X8.1031Y-2.6378
X8.111Y-1.9803
X8.1693Y-2.8654
X8.1693Y-2.9654
X8.2087Y-2.5591
X8.2087Y-2.6591
X8.2315Y-1.874
X8.2748Y-3.1299
X8.2748Y-3.2283
X8.2874Y-2.5504
X8.2874Y-2.6504
X8.2984Y-2.7953
X8.3294Y-3.3097
X8.3315Y-1.874
X8.3465Y-3.4992
X8.3465Y-3.5992
X8.3748Y-3.1299
X8.3748Y-3.2283
X8.3969Y-2.7165
X8.3984Y-2.7953
X8.4001Y-3.3804
X8.4567Y-3.1843
X8.4567Y-3.2843
X8.4969Y-2.7165
X8.563Y-3.1843
X8.563Y-3.2843
X8.6134Y-3.8386
X8.6205Y-3.7598
X8.6921Y-3.622
X8.7079Y-2.9803
X8.7134Y-3.8386
X8.7205Y-3.7598
X8.7906Y-2.5197
X8.7913Y-1.9283
X8.7913Y-2.0283
X8.7921Y-3.622
X8.8079Y-2.9803
X8.8102Y-3.7795
X8.8906Y-2.5197
X8.9102Y-3.7795
X8.9126Y-2.9843
X8.9244Y-3.622
X8.937Y-1.9094
X9.0126Y-2.9843
X9.0244Y-3.622
X9.037Y-1.9094
X9.0827Y-2.6724
X9.0827Y-2.7724
X9.1142Y-3.2945
X9.1142Y-3.3945
X9.1142Y-3.7906
X9.1142Y-3.8906
X9.1252Y-2.9134
X9.126Y-1.8732
X9.126Y-1.9732
X9.1339Y-3.4717
X9.1339Y-3.5717
X9.1409Y-2.4173
X9.1929Y-2.4874
X9.1929Y-2.5874
X9.2039Y-2.9921
X9.2236Y-3.189
X9.2252Y-2.9134
X9.2409Y-2.4173
X9.252Y-3.5504
X9.252Y-3.6504
X9.3039Y-2.9921
X9.3236Y-3.189
T3
X7.335Y-2.1187
X7.385Y-2.1187
X7.435Y-2.1187
X7.4879Y-2.1199
X7.5379Y-2.1199
X7.6559Y-2.2967
X7.6953Y-3.5236
X7.7022Y-3.8161
X7.7022Y-3.8661
X7.7022Y-3.9161
X7.7033Y-3.6311
X7.7033Y-3.6811
X7.7033Y-3.7311
X7.7059Y-2.2967
X7.7453Y-3.5236
X7.7559Y-2.2967
X7.7953Y-3.5236
X7.8254Y-2.0287
X7.8254Y-2.0787
X7.8254Y-2.1287
X7.9976Y-2.4106
X7.9976Y-2.4606
X7.9976Y-2.5106
X8.0118Y-2.9421
X8.0118Y-2.9921
X8.0118Y-3.0421
X8.189Y-3.1283
X8.189Y-3.1783
X8.189Y-3.2283
X9.101Y-2.1665
X9.101Y-2.2165
X9.101Y-2.2665
T4
X8.5512Y-2.3583
X8.6102Y-2.3583
T5
X7.2756Y-2.6575
X7.2756Y-2.8543
X7.3031Y-2.3246
X7.3031Y-2.4033
X7.374Y-3.4272
X7.374Y-3.5256
X7.437Y-2.7362
X7.437Y-2.8362
X7.437Y-2.9362
X7.437Y-3.0362
X7.4823Y-3.4724
X7.4882Y-4.0276
X7.5807Y-3.4724
X7.5866Y-4.0276
X7.6181Y-3.2006
X7.6181Y-3.299
X7.737Y-2.7362
X7.737Y-2.8362
X7.737Y-2.9362
X7.737Y-3.0362
X7.7953Y-1.6614
X7.7953Y-1.8583
X7.8307Y-3.8484
X7.8307Y-3.9469
X7.8346Y-3.3661
X7.874Y-2.7443
X7.874Y-2.8427
X7.874Y-2.9724
X7.874Y-3.0709
X7.8937Y-3.5846
X7.8937Y-3.6831
X8.002Y-2.7362
X8.0217Y-1.8976
X8.0315Y-3.3661
X8.0906Y-2.874
X8.0906Y-3.0709
X8.1004Y-2.7362
X8.1201Y-1.8976
X8.1969Y-2.1331
X8.1969Y-2.4331
X8.2203Y-3.8583
X8.2579Y-2.0276
X8.2969Y-2.1331
X8.2969Y-2.4331
X8.3187Y-3.8583
X8.3563Y-2.0276
X8.3969Y-2.1331
X8.3969Y-2.4331
X8.4055Y-2.874
X8.4134Y-3.5591
X8.4171Y-3.7795
X8.4547Y-3.4331
X8.4969Y-2.1331
X8.4969Y-2.4331
X8.5155Y-3.7795
X8.5531Y-3.4331
X8.6024Y-2.5787
X8.6024Y-2.7756
X8.6024Y-2.874
X8.6102Y-3.5591
X8.6488Y-2.1339
X8.6488Y-2.4339
X8.7008Y-2.5827
X8.7008Y-2.6827
X8.7008Y-2.7827
X8.7008Y-2.8827
X8.7126Y-3.2087
X8.7126Y-3.3087
X8.7126Y-3.4087
X8.7126Y-3.5087
X8.728Y-4.3701
X8.7488Y-2.1339
X8.7488Y-2.4339
X8.8386Y-4.107
X8.8386Y-4.2054
X8.8488Y-2.1339
X8.8488Y-2.4339
X8.874Y-2.0276
X8.9173Y-3.7008
X8.9254Y-3.8976
X8.9488Y-2.1339
X8.9488Y-2.4339
X9.0008Y-2.5827
X9.0008Y-2.6827
X9.0008Y-2.7827
X9.0008Y-2.8827
X9.0126Y-3.2087
X9.0126Y-3.3087
X9.0126Y-3.4087
X9.0126Y-3.5087
X9.0238Y-3.8976
X9.028Y-4.3701
X9.0709Y-2.0276
X9.1142Y-3.7008
X9.1339Y-3.0906
X9.1929Y-2.1457
X9.1929Y-2.3425
X9.2126Y-1.939
X9.2126Y-2.0374
X9.2126Y-3.2972
X9.2126Y-3.3957
X9.2913Y-3.7795
X9.2913Y-3.9764
X9.3307Y-3.0906
X9.3307Y-3.2874
X9.3307Y-3.4843
T6
X7.3465Y-1.6801
X7.4449Y-1.7785
X7.5433Y-1.6801
X8.7008Y-1.6841
X8.7992Y-1.7825
X8.8976Y-1.6841
X9.0906Y-1.6841
X9.189Y-1.7825
X9.2874Y-1.6841
T7
X7.2816Y-3.3189
X7.3816Y-3.3189
X7.4846Y-3.7598
X7.5846Y-3.7598
X7.6772Y-2.443
X7.6772Y-2.543
X7.9921Y-3.2087
X8.0921Y-3.2087
X9.1929Y-2.6989
X9.1929Y-2.7989
X9.311Y-2.6932
X9.311Y-2.7932
T8
X7.2441Y-4.0551
X7.3425Y-4.1969
X7.4606Y-4.3701
X7.4803Y-2.3425
X7.811Y-4.2323
X7.8402Y-2.2835
X7.9291Y-4.1181
X7.9331Y-3.9921
X7.937Y-4.3504
X7.9976Y-2.2835
X8.1299Y-3.9882
X8.4843Y-3.937
X8.622Y-3.9961
X8.7795Y-3.9961
X9.0945Y-4.1732
X9.2913Y-4.1732
T5
G00X8.1339Y-4.1732
M15
G01X8.2362Y-4.1732
M16
G05
G00X8.1417Y-4.4016
M15
G01X8.2283Y-4.4016
M16
G05
G00X8.374Y-4.3346
M15
G01X8.374Y-4.248
M16
G05
T0
M30
